<svg xmlns="http://www.w3.org/2000/svg" viewBox="15 54.8 105 119">
<!-- SVG created with Arrow, by QuiverAI (https://quiver.ai) -->
  <style type="text/css">.cls-0 {fill:url(#XMLID_2_);}
.cls-1 {fill:#FF8B57;}
.cls-2 {fill:url(#SVGID_1_);}
.cls-3 {fill:url(#SVGID_2_);}
.cls-4 {fill:#5A3842;stroke:#4C2D3E;stroke-width:0.3;stroke-miterlimit:10;}
.cls-5 {fill:#FFFFFF;}
.cls-6 {fill:#EE4748;}
.cls-7 {fill:none;stroke:#FBC88F;stroke-width:0.35;stroke-linecap:round;stroke-linejoin:round;stroke-miterlimit:10;}
.cls-8 {fill:#FFBF6C;}
.cls-9 {fill:#FFCD97;}
.cls-10 {fill:#FFEADC;stroke:#FCDDCA;stroke-width:0.3;stroke-linecap:round;stroke-linejoin:round;stroke-miterlimit:10;}
.cls-11 {fill:#CE3118;}
.cls-17 {fill:url(#SVGID_3_);stroke:#CACEFB;stroke-width:0.3;stroke-miterlimit:10;}
.cls-22 {fill:#FFA161;}
.cls-24 {fill:#FFD188;}
.cls-25 {fill:#FFBE78;}
.cls-26 {fill:#FFD08A;}
.cls-27 {fill:#FFCA78;}</style>
  <radialGradient id="XMLID_2_" cx="-100.7" cy="326" r="32.26" gradientTransform="matrix(1.33 0 0 .2521 166.1 -17.82)" gradientUnits="userSpaceOnUse">
    <stop stop-color="#EF7E85" offset="0"/>
    <stop stop-color="#FFD7D7" stop-opacity="0" offset="1"/>
  </radialGradient>
  <path class="cls-0" d="m114 160c-3.4-2.6-20.2-5-40.8-5s-37.2 1.4-44.2 3.8c-10.2 2.4-12.4 4.4 1 7.4 7 2 22.8 3.8 43.2 3.6 21.6-0.4 47.7-4.9 40.8-9.8z"/>
  <path class="cls-1" d="m101.8 132c9.7 7.5 9.2 18.1 0 19.3h-3l3-19.3z"/>
  <linearGradient id="SVGID_1_" x1="33.53" x2="102.1" y1="119.5" y2="119.5" gradientUnits="userSpaceOnUse">
    <stop stop-color="#FF8164" offset="0"/>
    <stop stop-color="#FFAB5B" offset=".5826"/>
  </linearGradient>
  <path class="cls-2" d="m67 88.8c-16-0.5-33.6 13.8-33.5 38.8 0.1 19.4 6.5 34.3 30.8 34.7 20.7 0.4 37.6-3.4 37.8-25.4-0.3-10.9-3.1-47.3-35.1-48.1z"/>
  <linearGradient id="SVGID_2_" x1="38.22" x2="45.36" y1="142.8" y2="133.8" gradientUnits="userSpaceOnUse">
    <stop stop-color="#FF7F44" offset=".2688"/>
    <stop stop-color="#FFBA61" offset="1"/>
  </linearGradient>
  <path class="cls-3" d="m32.6 129.9c4.4-4.9 16.5-9.6 19.5-1.9 2.7 7.8-3.1 17-12.1 19-9.5 1.6-15-8.6-7.4-17.1z"/>
  <path class="cls-4" d="m62.6 120.8c1.2 4.7 8.2 5.3 8.4 0.8s-2.2-6.6-4.6-6.8c-2.4 0.1-4.6 3.1-3.8 6z"/>
  <path class="cls-4" d="m86.1 119c0.7 4.4 6.8 5.4 7.3 0.9s-1.9-6.4-4.4-6.4c-2.5 0.3-3.2 2.5-2.9 5.5z"/>
  <path class="cls-4" d="m75.6 122.8c2.3 1.6 5.9 1.2 6.9-0.3 1.6-1.1 2 1.5 0.5 4.1-1.5 2.8-6 2.8-8-0.6-1-2-1-4 0.6-3.2z"/>
  <path class="cls-6" d="m75.1 126c0.9-1.9 5.4-2.6 7.3 1-1.5 2.4-5.8 2.5-7.3-1z"/>
  <path class="cls-5" d="m66.5 117c-0.4 1.4 2 3 2.3 0.9 0.3-1.3-1.8-2.1-2.3-0.9z"/>
  <path class="cls-5" d="m89.4 115.4c-0.9 0.7 0.6 3.1 1.7 1.4 0.9-0.9-0.7-2.4-1.7-1.4z"/>
  <path class="cls-1" d="m56.9 126.5c-0.3 4 7.7 4.1 8.6 0.4 0.5-3.5-8-5.3-8.6-0.4z"/>
  <path class="cls-1" d="m92 123.8c0.1 3.3 5.8 3.1 5.8-0.4 0.3-3-6-3-5.8 0.4z"/>
  <path class="cls-7" d="m77 122.9"/>
  <linearGradient id="SVGID_3_" x1="32.43" x2="46.98" y1="140.6" y2="127.1" gradientUnits="userSpaceOnUse">
    <stop stop-color="#FF7E40" offset="0"/>
    <stop stop-color="#FFB559" offset=".7361"/>
  </linearGradient>
  <path class="cls-17" d="m32.1 130.4c4.4-4.9 16.5-9.6 19.5-1.9 2.4 7.6-3.1 16.9-12.1 18.5-9.5 1.6-15-8.1-7.4-16.6z"/>
  <path class="cls-8" d="m56.9 96.1c-2.3-0.7-5.9 3.3-3.4 5.7 1.9 0.8 3.3-1.2 5-2.4 0.6-1.9-0.4-2.9-1.6-3.3z"/>
  <path class="cls-8" d="m59.6 93.4c-1.1 1.1-1.7 4.4 0.4 3.7 2.1-0.5 7-2.3 3.6-3.6-1.2-0.9-3-1.4-4-0.1z"/>
  <path class="cls-8" d="m81.6 94.4c-1.5 0.6 0.9 3.2 2.5 3 1.5-0.5-1-3.6-2.5-3z"/>
  <path class="cls-9" d="m106 93.1c-0.6 0.9-2.5 1.4-2.5 1.7 2.1 0.7 2.9 2.3 3 3.2 0 0.5 0.1 0.5 0.4-0.1 0.6-1.5 1.2-2.3 3.1-2.9-0.6-0.6-2.4-0.9-3.1-4.1-0.3-0.8-0.5 1.6-0.9 2.2z"/>
  <path class="cls-9" d="m113.4 102c-0.6 0.9-2 1.4-2 1.5 1.6 0.1 2.5 2 2.6 2.9 0.5 1.4 0.5-2.3 3-2.4-1.6-1-2-1.1-2.6-3.9-0.4 0.3-0.5 1.4-1 1.9z"/>
  <path class="cls-10" d="m69.1 56.6c-8.1-0.2-13 4.8-12.6 12.5 1.1 11.3 8.5 10.8 12.1 11.8 1.3 0 2.4 4.1 2.9 4.6 2.1-2.1 2.6-4 4.5-4 7.5 0.1 11.6-0.1 14.4-2 3.2-2.1 4.6-5.9 3.6-12.4-2-9-13.1-10-24.9-10.5z"/>
  <path class="cls-11" d="m66 67c0 0.9-1.2 0.9-1.2 0s1.2-0.9 1.2 0zm-1 2v3c0 0.8 1 0.8 1 0v-3c0.1-0.9-1-0.9-1 0zm7.5-2.1c-0.1-0.9-1-0.5-0.9 0v2h-2.6v-1.9c0-0.9-1-0.9-1 0l0.1 4.9c0 0.9 1 0.9 1 0l-0.1-1.9h2.6l0.2 2c-0.2 0.9 1.1 0.9 1 0l-0.3-5.1zm1.1 3.5c0 2.7 4.3 3.1 4.8 0.2 0-3.1-4.5-3.5-4.8-0.2zm1 0c0-1.8 2.4-1.9 2.5 0.1-0.1 1.6-2.5 1.9-2.5-0.1zm4.3 1.6c0 0.8 1 0.9 1-0.1l0.1-4.9c0-0.9-1.1-0.9-1.1 0v5zm4.2-1.9c-1.1-0.2-2.2-0.1-2.2 1 0.2 1.8 2.2 1.7 2.7 0.8 0 1.1 1.3 1 0.9-0.4 0.5-3-1.9-4.1-3.1-2.9-0.4 0.5 0.2 1 0.6 0.8 0.6-0.4 1.6-0.4 1.1 0.7zm0.4 0.8c0.1 1.1-1.9 1.2-1.6 0.1 0-0.5 1.6-0.4 1.6-0.1zm2.5 0.1c0.1-3.6 0.5-4.6-0.6-4.5-0.3 0.4 0 1.4-0.3 4.5h0.9zm-0.5 1c-0.5 0.9 1 1.4 1.1 0.4s-1.1-1.3-1.1-0.4z"/>
  <path class="cls-24" d="m38.5 127.9c0.6 1.6 2.6-0.3 3.5-0.9-0.5-1.1-3.4-1.5-3.5 0.9z"/>
  <path class="cls-25" d="m42.9 126.9c-1.4 1.7 1.1 3.5 2.2 1.6l-2.2-1.6z"/>
  <path class="cls-26" d="m44.5 127c-0.4 1.4 3.6 1.5 3.5-0.1-1-1.3-3.9-1.9-3.5 0.1z"/>
  <path class="cls-27" d="m55.5 151.9c-1 2.7 6.6 4.1 6.4 1.6-1.9-2.6-5.4-3.5-6.4-1.6z"/>
  <path class="cls-22" d="m43 76.9 4 5c1.9 2 3.9 1 2.4-1.5-1.4-2.8-2.4-6.5-5.4-6.3-1 0.4-1.5 1-1 2.8z"/>
  <path class="cls-22" d="m36.4 85.9c0 0.6 6.7 3.2 8 3.1 1.6-0.4 1.5-2-0.3-3-2.7-1.4-4.6-3.4-7-3-1.6 0.9-1.6 2.4-0.7 2.9z"/>
  <linearGradient id="SVGID_7_" x1="34.96" x2="38.72" y1="118.6" y2="117.8" gradientUnits="userSpaceOnUse">
    <stop stop-color="#FF9D78" offset="0"/>
    <stop stop-color="#FFAE73" stop-opacity="0" offset="1"/>
  </linearGradient>
  <path d="m34.9 116.6c0.5 2.4 1.1 4 1.1 4.5 1.5-1.1 3-3.2 3-4.7l-4.1 0.2z" fill="url(#SVGID_7_)"/>
</svg>