<svg xmlns="http://www.w3.org/2000/svg" viewBox="0 0 100 100">
<!-- SVG created with Arrow, by QuiverAI (https://quiver.ai) -->
  <style type="text/css">.cls-0 {fill:url(#SVGID_1_);}
.cls-1 {fill:url(#SVGID_2_);}
.cls-2 {fill:url(#SVGID_3_);}
.cls-3 {fill:url(#SVGID_4_);}
.cls-4 {fill:url(#SVGID_5_);}
.cls-5 {fill:url(#SVGID_6_);}
.cls-6 {fill:url(#SVGID_7_);}
.cls-7 {fill:url(#SVGID_8_);}
.cls-8 {fill:url(#SVGID_9_);}
.cls-9 {fill:url(#SVGID_10_);}
.cls-10 {fill:url(#SVGID_11_);}
.cls-11 {fill:url(#SVGID_12_);}
.cls-12 {fill:url(#SVGID_13_);}
.cls-13 {fill:url(#SVGID_14_);}
.cls-14 {fill:url(#SVGID_15_);}
.cls-15 {fill:url(#SVGID_16_);}
.cls-16 {fill:url(#SVGID_17_);}
.cls-17 {fill:#06091C;}
.cls-18 {fill:#FFFFFF;}
.cls-19 {fill:#C6C8D6;}
.cls-20 {fill:url(#SVGID_18_);}
.cls-21 {fill:url(#SVGID_19_);}
.cls-22 {fill:url(#SVGID_20_);}
.cls-23 {fill:url(#SVGID_21_);}
.cls-24 {fill:url(#SVGID_22_);}
.cls-25 {fill:#132740;}
.cls-26 {fill:url(#SVGID_23_);}
.cls-27 {fill:#2479CC;}
.cls-28 {fill:url(#SVGID_24_);}
.cls-29 {fill:url(#SVGID_25_);}
.cls-30 {fill:url(#SVGID_26_);}
.cls-31 {fill:url(#SVGID_27_);}
.cls-32 {fill:#340000;}
.cls-33 {fill:url(#SVGID_28_);}
.cls-34 {fill:url(#SVGID_29_);}
.cls-35 {fill:url(#SVGID_30_);}</style>
  <radialGradient id="SVGID_1_" cx="61.2" cy="95.6" r="16.1" gradientTransform="matrix(1 0 0 .25 0 71.7)" gradientUnits="userSpaceOnUse">
    <stop stop-color="#283669" stop-opacity=".5" offset="0"/>
    <stop stop-color="#283669" stop-opacity="0" offset="1"/>
  </radialGradient>
  <path class="cls-0" d="m82.4 95.6c0 1.9-9.5 2.4-21.2 2.4s-11.2-0.5-11.2-2.4 9.5-3.5 21.2-3.5 11.2 1.6 11.2 3.5z"/>
  <linearGradient id="SVGID_2_" x1="53.7" x2="64.6" y1="92.7" y2="92.7" gradientTransform="matrix(1 0 0 -1 0 101)" gradientUnits="userSpaceOnUse">
    <stop stop-color="#57BAFA" offset="0"/>
    <stop stop-color="#1466C2" offset="1"/>
  </linearGradient>
  <path class="cls-1" d="m53.7 6.4c1.9-2.2 4.8-4.7 9.6-4.7 3.9 0 6.6 1 6.9 2.3-0.6 1.4-2.7 2.4-2.8 5.5-3.1-1.6-7.4-3.3-13.7-3.1z"/>
  <linearGradient id="SVGID_3_" x1="55.49" x2="69.99" y1="96.7" y2="96.7" gradientTransform="matrix(1 0 0 -1 0 101)" gradientUnits="userSpaceOnUse">
    <stop stop-color="#3194E8" offset="0"/>
    <stop stop-color="#1469C9" offset="1"/>
  </linearGradient>
  <path class="cls-2" d="m55.9 6.3c1.5-2.6 4.6-4.2 7.4-4.3 3.3-0.1 5.7 0.4 6.9 1.9 1.3-1.5-1.8-2.3-3.3-2.1-5.7 0.6-9.1 2.5-11 4.5z"/>
  <linearGradient id="SVGID_4_" x1="55.4" x2="62.4" y1="97.55" y2="97.55" gradientTransform="matrix(1 0 0 -1 0 101)" gradientUnits="userSpaceOnUse">
    <stop stop-color="#B2E5FF" offset="0"/>
    <stop stop-color="#63C0FF" offset="1"/>
  </linearGradient>
  <path class="cls-3" d="m55.4 6c0.7-1.5 2.4-2.8 7-4.2-3.2 0-6.1 2.1-7 4.2z"/>
  <linearGradient id="SVGID_5_" x1="74.5" x2="86.7" y1="59.4" y2="59.4" gradientTransform="matrix(1 0 0 -1 0 101)" gradientUnits="userSpaceOnUse">
    <stop stop-color="#1A549B" offset="0"/>
    <stop stop-color="#2F8FEA" offset="1"/>
  </linearGradient>
  <path class="cls-4" d="m74.5 50.8c1.8-0.5 4.4-1.8 7.9-0.7 1.7 0.5 2.5 1.5 3.6 0.2 0.9-1.2 1.3-5.9-1.4-10.6-1.7-2.9-4.3-5.3-5-6.5l-5.1 17.6z"/>
  <linearGradient id="SVGID_6_" x1="81.9" x2="85.1" y1="64" y2="52.5" gradientTransform="matrix(1 0 0 -1 0 101)" gradientUnits="userSpaceOnUse">
    <stop stop-color="#4098EB" offset="0"/>
    <stop stop-color="#1C70D1" offset="1"/>
  </linearGradient>
  <path class="cls-5" d="m79.9 33.9c4.5 4.4 7.6 11.1 5.7 15.8-0.5 1-1.5 0.6-1.9 0.3-2.4-1.2-5.3-1.4-8.1-0.3l4.3-15.8z"/>
  <linearGradient id="SVGID_7_" x1="13.2" x2="33.9" y1="55.3" y2="55.3" gradientTransform="matrix(1 0 0 -1 0 101)" gradientUnits="userSpaceOnUse">
    <stop stop-color="#2479CC" offset="0"/>
    <stop stop-color="#1454AA" offset="1"/>
  </linearGradient>
  <path class="cls-6" d="m32.5 57.7c-5.6-2.7-13.4-5.6-17.7-14.8-1.2-2.5-2.9-8.8-0.3-12.6 3.2-3.6 6 1.3 7.8 4 1-0.3 3.4 0.4 4.4 5.2 0.9 1.5 3.5 3.1 4.8 3.8l2.4 3.9-1.4 10.5z"/>
  <linearGradient id="SVGID_8_" x1="13.4" x2="33.4" y1="56.35" y2="56.35" gradientTransform="matrix(1 0 0 -1 0 101)" gradientUnits="userSpaceOnUse">
    <stop stop-color="#318BE0" offset="0"/>
    <stop stop-color="#3493ED" offset=".5031"/>
    <stop stop-color="#1D70CD" offset="1"/>
  </linearGradient>
  <path class="cls-7" d="m33.4 57.1c-6.5-2.6-14.8-6.4-18.6-15.3-1.7-4.2-2.2-9.5 0.6-12.1 2-1.6 4.6 1.7 6.8 4.6 0.5-0.8 1-1.6 2-1.5 1.8 0.2 1.9 4.8 2.5 6.7 0.8 1.3 3.2 3.3 4.7 4.1l2.3 4.1-0.3 9.4z"/>
  <linearGradient id="SVGID_9_" x1="16.3" x2="18.1" y1="66.7" y2="66.7" gradientTransform="matrix(1 0 0 -1 0 101)" gradientUnits="userSpaceOnUse">
    <stop stop-color="#2479CC" offset="0"/>
    <stop stop-color="#2479CC" stop-opacity=".2" offset="1"/>
  </linearGradient>
  <path class="cls-8" d="m16.3 29.7c0.1 1.8 0.3 5.8 1.7 7.2 0.2-1.1-0.9-5.5-1.7-7.2z"/>
  <linearGradient id="SVGID_10_" x1="20.6" x2="23.1" y1="62.75" y2="62.75" gradientTransform="matrix(1 0 0 -1 0 101)" gradientUnits="userSpaceOnUse">
    <stop stop-color="#2479CC" offset="0"/>
    <stop stop-color="#2479CC" stop-opacity=".2" offset="1"/>
  </linearGradient>
  <path class="cls-9" d="m22.2 34.3c-0.8 1.4-1.7 4.3-0.8 8.5 0.9-1.3 0.9-5.4 1.7-8.4l-0.9-0.1z"/>
  <linearGradient id="SVGID_11_" x1="23.35" x2="24.65" y1="66.9" y2="62.2" gradientTransform="matrix(1 0 0 -1 0 101)" gradientUnits="userSpaceOnUse">
    <stop stop-color="#73C9FF" offset="0"/>
    <stop stop-color="#3795EE" stop-opacity="0" offset="1"/>
  </linearGradient>
  <path class="cls-10" d="m21.8 38.7c-0.3-1.1 0.9-5.5 2.4-5.4 1.3 0.2 1.3 4.8 0.7 5.8-0.8 1-2.7 0.8-3.1-0.4z"/>
  <linearGradient id="SVGID_12_" x1="14.3" x2="15.9" y1="66.8" y2="66.8" gradientTransform="matrix(1 0 0 -1 0 101)" gradientUnits="userSpaceOnUse">
    <stop stop-color="#73C9FF" offset="0"/>
    <stop stop-color="#3795EE" stop-opacity="0" offset="1"/>
  </linearGradient>
  <path class="cls-11" d="m15.4 29.9c-1.1 1.2-1.5 4.1-0.7 5.6 0.5 0.8 1.4-3.5 1.2-5.4l-0.5-0.2z"/>
  <linearGradient id="SVGID_13_" x1="50.74" x2="64.6" y1="9.3" y2="9.3" gradientTransform="matrix(1 0 0 -1 0 101)" gradientUnits="userSpaceOnUse">
    <stop stop-color="#2D82DA" offset="0"/>
    <stop stop-color="#1859A5" offset="1"/>
  </linearGradient>
  <path class="cls-12" d="m55.4 85.9c-1.8 1.2-4.4 3.6-4.7 7.4 0.1 3.4 2 5 4.8 3.9 3-1.2 8.2-3.7 9.1-7.6l-4.4-2.9-4.8-0.8z"/>
  <linearGradient id="SVGID_14_" x1="51.2" x2="63.8" y1="9.4" y2="9.4" gradientTransform="matrix(1 0 0 -1 0 101)" gradientUnits="userSpaceOnUse">
    <stop stop-color="#318BE0" offset="0"/>
    <stop stop-color="#1D69BE" offset="1"/>
  </linearGradient>
  <path class="cls-13" d="m55.6 86.4c-2.7 1.5-5 6-4.3 8.6 0.8 2.3 2.6 1.8 3.8 1.4 3.2-1 8.3-3.7 8.7-6.4-1.7-1.1-6.9-3.6-8.2-3.6z"/>
  <linearGradient id="SVGID_15_" x1="51.3" x2="55.6" y1="9.9" y2="9.9" gradientTransform="matrix(1 0 0 -1 0 101)" gradientUnits="userSpaceOnUse">
    <stop stop-color="#5399DF" offset="0"/>
    <stop stop-color="#2479CC" stop-opacity="0" offset="1"/>
  </linearGradient>
  <path class="cls-14" d="m55.6 86.4c-2.2 1.1-4.5 4.3-4.3 8 0.4-3.9 2.1-6.1 4.3-8z"/>
  <linearGradient id="SVGID_16_" x1="63.6" x2="80.6" y1="15.85" y2="15.85" gradientTransform="matrix(1 0 0 -1 0 101)" gradientUnits="userSpaceOnUse">
    <stop stop-color="#1859A5" offset="0"/>
    <stop stop-color="#2D82DA" offset="1"/>
  </linearGradient>
  <path class="cls-15" d="m64.8 82.4c2.3-0.9 5.2-2.9 10.6-2.9 2.5 0.1 5.2 0.6 5.2 2.4 0 1.3-3.3 4.5-6.2 6.2-2.7 1.4-6.3 2.6-10.8 1.5l-0.5-4.7 1.7-2.5z"/>
  <linearGradient id="SVGID_17_" x1="65.1" x2="80.5" y1="16.1" y2="16.1" gradientTransform="matrix(1 0 0 -1 0 101)" gradientUnits="userSpaceOnUse">
    <stop stop-color="#1D69BE" offset="0"/>
    <stop stop-color="#2D8BE6" offset="1"/>
  </linearGradient>
  <path class="cls-16" d="m65.1 82.7c3.3-1.6 7.3-2.8 10.1-2.8 1.9 0 5.4 0.8 5.3 1.7 0 1.3-4.4 4.8-6.1 5.9-2.7 1.4-6.1 2.2-9.3 1.3v-6.1z"/>
  <linearGradient id="SVGID_18_" x1="32.4" x2="79.7" y1="38.95" y2="38.95" gradientTransform="matrix(1 0 0 -1 0 101)" gradientUnits="userSpaceOnUse">
    <stop stop-color="#3493ED" offset="0"/>
    <stop stop-color="#347BD1" offset="1"/>
  </linearGradient>
  <path class="cls-20" d="m55.6 85.9c-6.7-2.7-21.5-8.6-23.1-25.9-0.4-4.5 0.9-10.6 0.9-12.8 3.5-3.8 23-8.3 34.7-6.8 2.2 3 4.3 12.8 4.1 16.9-0.3 7.2-8.1 21-8.3 25 1.2 2.1 1.5 5 0.5 7.3-2.3-0.1-6-1.7-8.8-3.7z"/>
  <radialGradient id="SVGID_19_" cx="44.8" cy="41.2" r="22.6" gradientTransform="matrix(1 0 0 -1 0 101)" gradientUnits="userSpaceOnUse">
    <stop stop-color="#F8F7FA" offset=".3865"/>
    <stop stop-color="#C6C8D6" offset=".9264"/>
  </radialGradient>
  <path class="cls-21" d="m59.9 87.6c-6-1.6-26.6-8.2-26.8-27.6 0-4.4 1.5-7.6 1.1-11.6 6.4-2 20.8-4 31.4-1.6 1 3.2 1.8 6.4 1.5 6.7-4.7 1.6-10.7 7.5-10.7 20.5 0 6.7 3.1 10.4 4 13.5l-0.5 0.1z"/>
  <linearGradient id="SVGID_20_" x1="63.1" x2="65.1" y1="20.3" y2="20.3" gradientTransform="matrix(1 0 0 -1 0 101)" gradientUnits="userSpaceOnUse">
    <stop stop-color="#377ECB" offset="0"/>
    <stop stop-color="#68A0DE" offset="1"/>
  </linearGradient>
  <path class="cls-22" d="m63.6 77.6c-0.5 2-0.2 3.8 1.5 6.2 0.3-0.9-1.7-2.7-1.2-6.2h-0.3z"/>
  <radialGradient id="SVGID_21_" cx="48.5" cy="46.4" r="10.6" gradientTransform="matrix(1 0 0 -1 0 101)" gradientUnits="userSpaceOnUse">
    <stop stop-color="#A9A9BA" offset="0"/>
    <stop stop-color="#A9A9BA" stop-opacity="0" offset="1"/>
  </radialGradient>
  <path class="cls-23" d="m41.6 53.9c1.8 2.9 4.3 5.8 7.5 5.8 3 0 6.4-2.1 9-2l2.4-0.4 1.4-1.4-4.5-1.4-13.7-1.8-2.1 1.2z"/>
  <linearGradient id="SVGID_22_" x1="53.7" x2="79.7" y1="68.65" y2="68.65" gradientTransform="matrix(1 0 0 -1 0 101)" gradientUnits="userSpaceOnUse">
    <stop stop-color="#49B0F2" offset="0"/>
    <stop stop-color="#2479CC" offset="1"/>
  </linearGradient>
  <path class="cls-24" d="m53.7 6.3c4-0.3 8.7-0.2 13.7 3.1 3.7 2.1 11.1 7.7 12.1 18.2 1 8.4-1.4 16.3-4.4 22.3-2.7 5.5-2.9 7.4-2.9 7.4-0.8-1.8-1.3-3.7-2.8-4.1l-15.7-40.8v-6.1z"/>
  <radialGradient id="SVGID_23_" cx="52.5" cy="85.3" r="19.9" gradientTransform="matrix(1 0 0 -1 0 101)" gradientUnits="userSpaceOnUse">
    <stop stop-color="#63C0FF" offset="0"/>
    <stop stop-color="#379EF1" offset=".7143"/>
  </radialGradient>
  <path class="cls-26" d="m55.6 6.3c-10.7 1.1-19.5 7.2-23.2 20.8-1 4-2 3.3-3.5 6.4l9.6 2.4 22 2.5 6.2-1.3c3.2-1.4 3.7-5.2 3.3-9.2-0.4-3.5-3.9-6.4-7.1-6.3 2-1.1 4.8-1.2 6.8 0-0.8-3-4.9-4.9-7.3-4.5 2-1.6 5-1.5 6.7-0.8-3.2-5.4-9-9.2-13.5-10z"/>
  <path class="cls-27" d="m55.1 6.4c-4.4 0-12.7 1.2-18 9.1 4.8-5.6 10.3-8.1 18-9.1z"/>
  <linearGradient id="SVGID_24_" x1="57.9" x2="68.5" y1="76.15" y2="76.15" gradientTransform="matrix(1 0 0 -1 0 101)" gradientUnits="userSpaceOnUse">
    <stop stop-color="#49B0F2" offset="0"/>
    <stop stop-color="#2479CC" stop-opacity="0" offset="1"/>
  </linearGradient>
  <path class="cls-28" d="m59.6 25.6c1.1-3 3.3-4.1 5-4 1.8 0.1 3.5 1.6 3.9 2.5-3-2.2-6.6-2.5-8.9 1.5z"/>
  <linearGradient id="SVGID_25_" x1="38.9" x2="45.4" y1="80.8" y2="80.8" gradientTransform="matrix(1 0 0 -1 0 101)" gradientUnits="userSpaceOnUse">
    <stop stop-color="#49B0F2" offset="0"/>
    <stop stop-color="#2479CC" stop-opacity="0" offset="1"/>
  </linearGradient>
  <path class="cls-29" d="m38.9 20.7c1.6-2 5-3.1 6.5 0.9-1.5-2.1-3.7-2.6-6.5-0.9z"/>
  <linearGradient id="SVGID_26_" x1="28.3" x2="74.5" y1="57.5" y2="57.5" gradientTransform="matrix(1 0 0 -1 0 101)" gradientUnits="userSpaceOnUse">
    <stop stop-color="#A9A9BA" offset="0"/>
    <stop stop-color="#F0EEF0" offset=".5393"/>
    <stop stop-color="#BFC0CC" offset="1"/>
  </linearGradient>
  <path class="cls-30" d="m28.9 32.9c1.3-1.9 4.7-3.5 7.5-0.5l1.5 1c1 0.5 2.2 0.6 2.2 0.6 3-2.4 5.3-2.6 9-2.4 5.3 0.5 7.5 3.6 11.4 6 2.4-0.3 5.4-0.7 7.1-0.8 4-0.4 7 2.6 6.9 6.6s-3.1 8.1-8.1 9.8c-4.7 1.5-8.5 2.3-11.9 2.3-1.9 0-4.6 0.1-4.6 0.1-3.2 0.7-6-0.2-7.5-2-5.3-2.2-15.5-9.7-14-18.7l0.5-2z"/>
  <linearGradient id="SVGID_27_" x1="47.4" x2="60.2" y1="69.2" y2="62.6" gradientTransform="matrix(1 0 0 -1 0 101)" gradientUnits="userSpaceOnUse">
    <stop stop-color="#63C0FF" offset="0"/>
    <stop stop-color="#2479CC" stop-opacity="0" offset="1"/>
  </linearGradient>
  <path class="cls-31" d="m45.6 30.9c3.3-0.8 8.5 1.2 11.8 4.7 2.7 2.7 4 2.5 4 2.5l-1.5 1.5s-4.8-2.9-6.3-4.6c-1.5-1.6-5-3.4-9-3.6l1-0.5z"/>
  <path class="cls-17" d="m36.1 28.1c0.5-3.7 2.3-7.6 5.6-7.8 2.7-0.2 4 3.1 3.3 7.3l-0.9 4-3.7 2.3c-3-0.5-4.8-1.5-4.3-5.8z"/>
  <path class="cls-18" d="m36.5 28.1c0.6-3.2 3-6.5 5.6-6.5 2.5 0 3.3 2.8 2.8 6.1l-0.8 4-3.7 1.7c-2.8 0-4.7-1.3-3.9-5.3z"/>
  <path class="cls-19" d="m36.6 29.1c0-2.4 2.5-7 5.5-7 1.6 0 2.5 1.4 2.9 3-0.4-1.9-1.1-3.5-2.9-3.5-2.7 0-5.5 3.8-5.5 7.5z"/>
  <linearGradient id="SVGID_28_" x1="38.2" x2="44.9" y1="71.45" y2="71.45" gradientTransform="matrix(1 0 0 -1 0 101)" gradientUnits="userSpaceOnUse">
    <stop stop-color="#2479CC" offset="0"/>
    <stop stop-color="#000720" offset="1"/>
  </linearGradient>
  <path class="cls-33" d="m38.4 28.5c0.5-2.1 2.3-4 4-3.9s3 2 2.3 4.5c-0.3 2-1 4.3-3.6 4.8-2 0.1-3.5-2.3-2.7-5.4z"/>
  <linearGradient id="SVGID_29_" x1="40.37" x2="40.37" y1="72.7" y2="66.8" gradientTransform="matrix(1 0 0 -1 0 101)" gradientUnits="userSpaceOnUse">
    <stop stop-color="#002061" offset="0"/>
    <stop stop-color="#1A65C2" offset="1"/>
  </linearGradient>
  <path class="cls-34" d="m39.2 28.4c0.5-1.5 1.2 0 1.2 0-1.3 3.1 0.2 5.2 1.2 5.6-1 0.5-3.5-1.1-2.4-5.6z"/>
  <linearGradient id="SVGID_30_" x1="41.15" x2="41.15" y1="75.2" y2="73.2" gradientTransform="matrix(1 0 0 -1 0 101)" gradientUnits="userSpaceOnUse">
    <stop stop-color="#fff" offset="0"/>
    <stop stop-color="#fff" stop-opacity="0" offset="1"/>
  </linearGradient>
  <path class="cls-35" d="m40.2 26.1c0.4-0.6 1.2-1 1.7-0.2 0.5 0.7 0 1.5-0.5 1.7-0.5 0.4-1 0.3-1.3-0.4l0.1-1.1z"/>
  <path class="cls-17" d="m58.4 28.5c1-3.1 3.2-5.1 5.8-5.1 3.5 0.1 6.3 3.2 5.4 8.6-0.5 2.4-1.2 4.9-3.2 5.4l-4.8 0.2c-3.2-0.3-4.7-2.6-3.2-9.1z"/>
  <path class="cls-19" d="m58.4 29.5c1-2.9 3-4.9 5.5-4.9 3.2 0 5.8 3 5.5 7-0.3 2.8-1.3 5.3-3 5.8l-3.8 0.2c-4.1 0-5.7-3-4.2-8.1z"/>
  <path class="cls-18" d="m58.6 29.5c1-2.8 2.8-4.4 5.1-4.4 3.2 0 5.7 2.8 5.4 6.6-0.1 2.7-1.4 5.7-2.7 5.7l-3.8 0.2c-4 0-5.5-3.1-4-8.1z"/>
  <path class="cls-19" d="m58.6 30.4c0.9-3 2.8-4.9 5.1-4.9 2.2 0 3.9 1.1 4.9 3.6-0.9-2.2-2.5-3.2-4.5-3.2-2.5 0-4.7 1.7-5.5 4.5z"/>
  <linearGradient id="SVGID_31_" x1="63.15" x2="63.15" y1="73.2" y2="63" gradientTransform="matrix(1 0 0 -1 0 101)" gradientUnits="userSpaceOnUse">
    <stop stop-color="#002061" offset="0"/>
    <stop stop-color="#1A65C2" offset="1"/>
  </linearGradient>
  <path d="m59.4 31.1c0.6-2.2 2.7-4 4.5-3.5 2 0.3 3.8 2.4 3.2 5.6-0.5 2.3-1.5 4.4-4.5 4.4-2.7 0-4.1-3.2-3.2-6.5z" fill="url(#SVGID_31_)"/>
  <linearGradient id="SVGID_32_" x1="63.3" x2="63.3" y1="69.4" y2="64.3" gradientTransform="matrix(1 0 0 -1 0 101)" gradientUnits="userSpaceOnUse">
    <stop stop-color="#09142E" offset="0"/>
    <stop stop-color="#002042" offset="1"/>
  </linearGradient>
  <path d="m60.7 32c0.4-1.9 1.9-3.1 3.2-2.6 1.2 0.3 2 2 1.7 3.7-0.2 1.6-1.5 3-3 2.9-1.2-0.1-2.2-1.6-1.9-4z" fill="url(#SVGID_32_)"/>
  <path class="cls-18" d="m61.4 28.9c0.5-0.8 1.5-0.8 1.8 0 0.5 0.7 0 1.5-0.6 1.7-0.5 0.3-1.2-0.1-1.4-0.7l0.2-1z"/>
  <linearGradient id="SVGID_33_" x1="65.7" x2="66.6" y1="69.6" y2="69.6" gradientTransform="matrix(1 0 0 -1 0 101)" gradientUnits="userSpaceOnUse">
    <stop stop-color="#1A65C2" offset="0"/>
    <stop stop-color="#1A65C2" stop-opacity="0" offset="1"/>
  </linearGradient>
  <path d="m65.7 30c0.4 0 0.9 0.4 0.9 1 0.1 0.5-0.2 1-0.5 1l-0.4-2z" fill="url(#SVGID_33_)"/>
  <linearGradient id="SVGID_34_" x1="42.75" x2="42.75" y1="69.1" y2="57.8" gradientTransform="matrix(1 0 0 -1 0 101)" gradientUnits="userSpaceOnUse">
    <stop stop-color="#57BAFA" offset="0"/>
    <stop stop-color="#3493ED" offset=".4896"/>
    <stop stop-color="#2468B7" offset="1"/>
  </linearGradient>
  <path d="m37.9 36.8c0.2-1.4 2.7-5.4 8-5.4 5.2 0 10.5 2.7 13.8 8.5-1.8 2-5.6 3.2-10.3 3.2-6.7 0-11.8-3.1-11.5-6.3z" fill="url(#SVGID_34_)"/>
  <linearGradient id="SVGID_35_" x1="43.2" x2="46.2" y1="66.1" y2="66.1" gradientTransform="matrix(1 0 0 -1 0 101)" gradientUnits="userSpaceOnUse">
    <stop stop-color="#9BD9FF" offset="0"/>
    <stop stop-color="#9BD9FF" stop-opacity="0" offset="1"/>
  </linearGradient>
  <path d="m43.2 34.4c0-0.8 2.2-1.2 2.9-0.4 0.5 0.5 0.1 1.5-0.7 1.5-1-0.1-2.2-0.6-2.2-1.1z" enable-background="new" fill="url(#SVGID_35_)" opacity=".5"/>
  <path class="cls-25" d="m40.1 16.1c0.6-2 3.6-4.4 5.6-3.1 0.7 0.5 0.5 1.5 0 1.4-2.1-1-4.2 0.2-5.3 1.6l-0.3 0.1z"/>
  <linearGradient id="SVGID_36_" x1="40.9" x2="45.6" y1="86.6" y2="86.6" gradientTransform="matrix(1 0 0 -1 0 101)" gradientUnits="userSpaceOnUse">
    <stop stop-color="#324A6B" offset="0"/>
    <stop stop-color="#324A6B" stop-opacity="0" offset="1"/>
  </linearGradient>
  <path d="m40.9 15.1c0.8-1.4 3.5-2.7 4.7-1.5l-0.2 0.4c-1.8-0.4-3-0.1-4.5 1.1z" fill="url(#SVGID_36_)"/>
  <path class="cls-25" d="m63.7 16.9c0.2-1.8 4.9-1.9 6.2 2.2l0.1 1.3c-1.3-1.8-3.4-3.5-6.3-3.5z"/>
  <linearGradient id="SVGID_37_" x1="63.7" x2="67.9" y1="84.25" y2="84.25" gradientTransform="matrix(1 0 0 -1 0 101)" gradientUnits="userSpaceOnUse">
    <stop stop-color="#324A6B" offset="0"/>
    <stop stop-color="#324A6B" stop-opacity="0" offset="1"/>
  </linearGradient>
  <path d="m63.7 16.7c-0.1-1.1 3-1.1 4.2 0-1.3-0.6-3-0.6-4.2 0z" fill="url(#SVGID_37_)"/>
  <linearGradient id="SVGID_38_" x1="60.1" x2="74.5" y1="59.8" y2="54.4" gradientTransform="matrix(1 0 0 -1 0 101)" gradientUnits="userSpaceOnUse">
    <stop stop-color="#fff" stop-opacity=".2" offset="0"/>
    <stop stop-color="#fff" offset="1"/>
  </linearGradient>
  <path d="m60.1 39.6c1-1.5 9-4.2 12.5-0.7 3.5 3.2 2 7.2 0.1 9.8 1-4.6-6.1-9.3-12.6-9.1z" fill="url(#SVGID_38_)"/>
  <linearGradient id="SVGID_39_" x1="60.6" x2="66.6" y1="62.1" y2="62.1" gradientTransform="matrix(1 0 0 -1 0 101)" gradientUnits="userSpaceOnUse">
    <stop stop-color="#fff" stop-opacity=".8" offset="0"/>
    <stop stop-color="#fff" stop-opacity="0" offset="1"/>
  </linearGradient>
  <path d="m60.6 39.4c1-1.3 4.1-2.1 6-1.8-2.7 0.5-4.2 1.1-6 1.8z" fill="url(#SVGID_39_)"/>
  <linearGradient id="SVGID_40_" x1="40.7" x2="40.7" y1="67.6" y2="46.2" gradientTransform="matrix(1 0 0 -1 0 101)" gradientUnits="userSpaceOnUse">
    <stop stop-color="#A9A9BA" offset="0"/>
    <stop stop-color="#F0EEF0" offset=".4607"/>
    <stop stop-color="#D0D1DB" offset="1"/>
  </linearGradient>
  <path d="m37.9 35.9c-2.8 0.1-5 0.7-7.8-2.7-2 5.2 2 12.4 12.6 20.3 3.2 2.5 6.7 2.1 10.9 0.4l1.3-1 1.5-5-3 2.2-3.4 1.8-4.1 0.2-2.3-1.1-1.9-3.4-1.8-7.2-1.8-2.3-0.2-2.2z" fill="url(#SVGID_40_)"/>
  <linearGradient id="SVGID_41_" x1="28.6" x2="37.4" y1="65.1" y2="65.1" gradientTransform="matrix(1 0 0 -1 0 101)" gradientUnits="userSpaceOnUse">
    <stop stop-color="#DFDDE3" offset="0"/>
    <stop stop-color="#fff" offset="1"/>
  </linearGradient>
  <path d="m28.9 32.9c2-2.5 5-2.9 7.2-0.9 1 0.9 1.5 2.5 1.3 3.4-2.8 0-5.8 0.5-7.8 2.2l-1-3.1 0.3-1.6z" fill="url(#SVGID_41_)"/>
  <linearGradient id="SVGID_42_" x1="35.41" x2="40" y1="61.9" y2="61.9" gradientTransform="matrix(1 0 0 -1 0 101)" gradientUnits="userSpaceOnUse">
    <stop stop-color="#C6C8D6" stop-opacity=".5" offset="0"/>
    <stop stop-color="#A9A9BA" stop-opacity="0" offset="1"/>
  </linearGradient>
  <path d="m37.9 35.9c-2 0.2-3.3 1-2.5 2.8 0.8 2 2 2.7 3.2 1.3l1.4 0.4-1.9-3.3-0.2-1.2z" fill="url(#SVGID_42_)"/>
  <linearGradient id="SVGID_43_" x1="40.4" x2="43.2" y1="54.6" y2="54.6" gradientTransform="matrix(1 0 0 -1 0 101)" gradientUnits="userSpaceOnUse">
    <stop stop-color="#fff" stop-opacity=".4" offset="0"/>
    <stop stop-color="#fff" stop-opacity="0" offset="1"/>
  </linearGradient>
  <path d="m40.4 42.4 1.3 5.2 1.5 1.8-0.8-2.3-1.5-3.7-0.5-1z" fill="url(#SVGID_43_)"/>
  <linearGradient id="SVGID_44_" x1="42.6" x2="54.6" y1="50.45" y2="50.45" gradientTransform="matrix(1 0 0 -1 0 101)" gradientUnits="userSpaceOnUse">
    <stop stop-color="#fff" stop-opacity=".8" offset="0"/>
    <stop stop-color="#fff" stop-opacity="0" offset="1"/>
  </linearGradient>
  <path d="m42.6 50.6c0.8 2.5 5.3 4.1 10.1 1l1.9-1.6-0.9-0.5c-2.6 2.4-8.1 4.4-11.1 1.1z" fill="url(#SVGID_44_)"/>
  <linearGradient id="SVGID_45_" x1="50.1" x2="50.1" y1="59.1" y2="47" gradientTransform="matrix(1 0 0 -1 0 101)" gradientUnits="userSpaceOnUse">
    <stop stop-color="#4A0906" offset="0"/>
    <stop stop-color="#210504" offset="1"/>
  </linearGradient>
  <path d="m40.1 40.4c1.6 4 1.8 8.9 4.5 11 1.8 1 4.1 1.3 6.5-0.3 3.6-2.2 6.5-7.1 8.6-10.5-3 2-6.6 2.6-10.6 2.4-3.7 0-7-1.1-9-2.6z" fill="url(#SVGID_45_)"/>
  <linearGradient id="SVGID_46_" x1="43.3" x2="55.2" y1="52" y2="52" gradientTransform="matrix(1 0 0 -1 0 101)" gradientUnits="userSpaceOnUse">
    <stop stop-color="#FD867A" offset="0"/>
    <stop stop-color="#E66965" offset=".4785"/>
    <stop stop-color="#AC3333" offset="1"/>
  </linearGradient>
  <path d="m43.6 47.1c1.1-2.1 4-3.1 6.4-2 1.9-0.5 3.7-0.2 5.2 1.3-0.8 1.5-2.5 3.2-4.1 4.3-1.5 1.2-4.5 2-6.5 0.7-1.2-0.7-1.7-2.8-1-4.3z" fill="url(#SVGID_46_)"/>
  <linearGradient id="SVGID_47_" x1="46.8" x2="50" y1="53.2" y2="53.2" gradientTransform="matrix(1 0 0 -1 0 101)" gradientUnits="userSpaceOnUse">
    <stop stop-color="#BF4242" offset="0"/>
    <stop stop-color="#B83636" offset="1"/>
  </linearGradient>
  <path d="m46.8 49.4c0.1-2 1.6-3.9 3.2-4.3-1.4-0.1-3.6 1.3-3.2 4.3z" fill="url(#SVGID_47_)"/>
  <linearGradient id="SVGID_48_" x1="47.1" x2="49.7" y1="50.7" y2="50.7" gradientTransform="matrix(1 0 0 -1 0 101)" gradientUnits="userSpaceOnUse">
    <stop stop-color="#FF9488" offset="0"/>
    <stop stop-color="#FFA799" stop-opacity="0" offset="1"/>
  </linearGradient>
  <path d="m47.1 50.6c-0.2-1.2 1.8-2.2 2.6-1.2l-2.6 1.2z" fill="url(#SVGID_48_)"/>
  <linearGradient id="SVGID_49_" x1="55.1" x2="61.5" y1="57.9" y2="57.9" gradientTransform="matrix(1 0 0 -1 0 101)" gradientUnits="userSpaceOnUse">
    <stop stop-color="#A9A9BA" stop-opacity=".5" offset="0"/>
    <stop stop-color="#A9A9BA" stop-opacity="0" offset="1"/>
  </linearGradient>
  <path d="m55.1 46.1c1.5-1.6 3.8-5.1 4.9-5.7l1.5 1.7-2.6 3.5-3.8 0.5z" fill="url(#SVGID_49_)"/>
  <linearGradient id="SVGID_50_" x1="59.9" x2="61.5" y1="58.6" y2="58.6" gradientTransform="matrix(1 0 0 -1 0 101)" gradientUnits="userSpaceOnUse">
    <stop stop-color="#A9A9BA" offset="0"/>
    <stop stop-color="#A9A9BA" stop-opacity="0" offset="1"/>
  </linearGradient>
  <path d="m59.9 40.4 1.6 2-0.6 1-1-3z" fill="url(#SVGID_50_)"/>
  <linearGradient id="SVGID_51_" x1="60.9" x2="76" y1="35.2" y2="35.2" gradientTransform="matrix(1 0 0 -1 0 101)" gradientUnits="userSpaceOnUse">
    <stop stop-color="#1454AA" offset="0"/>
    <stop stop-color="#5399DF" offset="1"/>
  </linearGradient>
  <path d="m65.1 53.9c-4.5 2.5-8.7 9.8-8.7 19.6 0 6.9 3 10.6 4 14 1.5 0.9 3.5 1.6 4.2 2 1.1-2.1 1.8-4.6 0-7.1-0.7-1.3-1.2-3.5-0.7-4.8 1.5 1.1 4.7 2.5 6.1 1.1 0.6-0.6 0.6-2.3-0.1-3.5 2.7-1.3 6.2-3.8 6.1-9.6 0-3.7-3.6-7.5-3.9-8.7l-1-3h-6z" fill="url(#SVGID_51_)"/>
  <linearGradient id="SVGID_52_" x1="62.1" x2="75.4" y1="34" y2="34" gradientTransform="matrix(1 0 0 -1 0 101)" gradientUnits="userSpaceOnUse">
    <stop stop-color="#1A64C0" offset="0"/>
    <stop stop-color="#2479CC" offset=".5031"/>
    <stop stop-color="#2962B3" offset="1"/>
  </linearGradient>
  <path d="m65.9 53.9c-4.8 2.2-6 4.7-4.4 9.6 0.6 1.6 2.2 2.6 2.2 2.6-2 2.6-2.8 7.8-0.3 11.5 1.2 1.1 4.5 2.5 6.2 1.1 0.9-0.6 0.5-2.7-0.2-3.3 3.3-1.8 6.3-4.3 6-9.8-0.3-3.6-2.8-6.7-4.3-9l-0.5-2.7h-4.7z" fill="url(#SVGID_52_)"/>
  <linearGradient id="SVGID_53_" x1="61.4" x2="66.7" y1="38.2" y2="38.2" gradientTransform="matrix(1 0 0 -1 0 101)" gradientUnits="userSpaceOnUse">
    <stop stop-color="#1454AA" offset="0"/>
    <stop stop-color="#1454AA" stop-opacity="0" offset="1"/>
  </linearGradient>
  <path d="m61.4 57.9c-0.7 3.1 0 7.5 4.1 8.1l1.2-0.6-2.1-3.5-0.7-3.3-2.5-0.7z" fill="url(#SVGID_53_)"/>
  <linearGradient id="SVGID_54_" x1="62.1" x2="69.1" y1="30.1" y2="30.1" gradientTransform="matrix(1 0 0 -1 0 101)" gradientUnits="userSpaceOnUse">
    <stop stop-color="#143F87" offset="0"/>
    <stop stop-color="#2479CC" stop-opacity="0" offset="1"/>
  </linearGradient>
  <path d="m65.5 66c-1.9 1.1-4.4 5.5-2.4 9.7l1.3 1.9 4.7-2-0.2-0.2c-2.3 0.7-6-0.7-5.5-3.9 0.5-2.6 3.3-4.8 5-5.4l-2.9-0.1z" fill="url(#SVGID_54_)"/>
  <radialGradient id="SVGID_55_" cx="67.6" cy="38.1" r="6.4" gradientTransform="matrix(1 0 0 -1 0 101)" gradientUnits="userSpaceOnUse">
    <stop stop-color="#3795EE" offset="0"/>
    <stop stop-color="#2479CC" stop-opacity="0" offset="1"/>
  </radialGradient>
  <path d="m62.1 59.6c0-2 2.6-3.2 5-2.7 3.3 0.5 6.3 3.5 6 7.1-0.4 4.1-5 5.9-7.5 5.6-2.4-0.1-3.5-5.7-3.5-10z" fill="url(#SVGID_55_)"/>
  <linearGradient id="SVGID_56_" x1="63.1" x2="67.4" y1="38.4" y2="38.4" gradientTransform="matrix(1 0 0 -1 0 101)" gradientUnits="userSpaceOnUse">
    <stop stop-color="#2479CC" stop-opacity="0" offset="0"/>
    <stop stop-color="#14489E" offset="1"/>
  </linearGradient>
  <path d="m63.1 58.6c-1.4 1.5-0.5 5.9 3.6 7l0.7-0.2c-2.3-1.5-4.8-4.3-2.8-6.5l-1.5-0.3z" fill="url(#SVGID_56_)"/>
  <linearGradient id="SVGID_57_" x1="70.5" x2="72.2" y1="43.45" y2="43.45" gradientTransform="matrix(1 0 0 -1 0 101)" gradientUnits="userSpaceOnUse">
    <stop stop-color="#57BAFA" offset="0"/>
    <stop stop-color="#57BAFA" stop-opacity="0" offset="1"/>
  </linearGradient>
  <path d="m70.9 53.1c-0.7 1.3 0.7 3.5 1.3 4-0.1-1.2-0.7-2.2-1.3-4z" fill="url(#SVGID_57_)"/>
</svg>