<svg xmlns="http://www.w3.org/2000/svg" viewBox="0 0 100 100"><style>.cls-17{fill:#06091c}.cls-18{fill:#fff}.cls-19{fill:#c6c8d6}.cls-25{fill:#132740}</style><radialGradient id="phingo_char_SVGID_1_" cx="61.2" cy="95.6" r="16.1" gradientTransform="matrix(1 0 0 .25 0 71.7)" gradientUnits="userSpaceOnUse"><stop offset="0" stop-color="#283669" stop-opacity=".5"/><stop offset="1" stop-color="#283669" stop-opacity="0"/></radialGradient><path d="M82.4 95.6c0 1.9-9.5 2.4-21.2 2.4S50 97.5 50 95.6s9.5-3.5 21.2-3.5 11.2 1.6 11.2 3.5" style="fill:url(#phingo_char_SVGID_1_)"/><linearGradient id="phingo_char_SVGID_2_" x1="53.7" x2="64.6" y1="92.7" y2="92.7" gradientTransform="matrix(1 0 0 -1 0 101)" gradientUnits="userSpaceOnUse"><stop offset="0" stop-color="#57BAFA"/><stop offset="1" stop-color="#1466C2"/></linearGradient><path d="M53.7 6.4c1.9-2.2 4.8-4.7 9.6-4.7 3.9 0 6.6 1 6.9 2.3-.6 1.4-2.7 2.4-2.8 5.5-3.1-1.6-7.4-3.3-13.7-3.1" style="fill:url(#phingo_char_SVGID_2_)"/><linearGradient id="phingo_char_SVGID_3_" x1="55.49" x2="69.99" y1="96.7" y2="96.7" gradientTransform="matrix(1 0 0 -1 0 101)" gradientUnits="userSpaceOnUse"><stop offset="0" stop-color="#3194E8"/><stop offset="1" stop-color="#1469C9"/></linearGradient><path d="M55.9 6.3c1.5-2.6 4.6-4.2 7.4-4.3 3.3-.1 5.7.4 6.9 1.9 1.3-1.5-1.8-2.3-3.3-2.1-5.7.6-9.1 2.5-11 4.5" style="fill:url(#phingo_char_SVGID_3_)"/><linearGradient id="phingo_char_SVGID_4_" x1="55.4" x2="62.4" y1="97.55" y2="97.55" gradientTransform="matrix(1 0 0 -1 0 101)" gradientUnits="userSpaceOnUse"><stop offset="0" stop-color="#B2E5FF"/><stop offset="1" stop-color="#63C0FF"/></linearGradient><path d="M55.4 6c.7-1.5 2.4-2.8 7-4.2-3.2 0-6.1 2.1-7 4.2" style="fill:url(#phingo_char_SVGID_4_)"/><linearGradient id="phingo_char_SVGID_5_" x1="74.5" x2="86.7" y1="59.4" y2="59.4" gradientTransform="matrix(1 0 0 -1 0 101)" gradientUnits="userSpaceOnUse"><stop offset="0" stop-color="#1A549B"/><stop offset="1" stop-color="#2F8FEA"/></linearGradient><path d="M74.5 50.8c1.8-.5 4.4-1.8 7.9-.7 1.7.5 2.5 1.5 3.6.2.9-1.2 1.3-5.9-1.4-10.6-1.7-2.9-4.3-5.3-5-6.5z" style="fill:url(#phingo_char_SVGID_5_)"/><linearGradient id="phingo_char_SVGID_6_" x1="81.9" x2="85.1" y1="64" y2="52.5" gradientTransform="matrix(1 0 0 -1 0 101)" gradientUnits="userSpaceOnUse"><stop offset="0" stop-color="#4098EB"/><stop offset="1" stop-color="#1C70D1"/></linearGradient><path d="M79.9 33.9c4.5 4.4 7.6 11.1 5.7 15.8-.5 1-1.5.6-1.9.3-2.4-1.2-5.3-1.4-8.1-.3z" style="fill:url(#phingo_char_SVGID_6_)"/><linearGradient id="phingo_char_SVGID_7_" x1="13.2" x2="33.9" y1="55.3" y2="55.3" gradientTransform="matrix(1 0 0 -1 0 101)" gradientUnits="userSpaceOnUse"><stop offset="0" stop-color="#2479CC"/><stop offset="1" stop-color="#1454AA"/></linearGradient><path d="M32.5 57.7c-5.6-2.7-13.4-5.6-17.7-14.8-1.2-2.5-2.9-8.8-.3-12.6 3.2-3.6 6 1.3 7.8 4 1-.3 3.4.4 4.4 5.2.9 1.5 3.5 3.1 4.8 3.8l2.4 3.9z" style="fill:url(#phingo_char_SVGID_7_)"/><linearGradient id="phingo_char_SVGID_8_" x1="13.4" x2="33.4" y1="56.35" y2="56.35" gradientTransform="matrix(1 0 0 -1 0 101)" gradientUnits="userSpaceOnUse"><stop offset="0" stop-color="#318BE0"/><stop offset=".503" stop-color="#3493ED"/><stop offset="1" stop-color="#1D70CD"/></linearGradient><path d="M33.4 57.1c-6.5-2.6-14.8-6.4-18.6-15.3-1.7-4.2-2.2-9.5.6-12.1 2-1.6 4.6 1.7 6.8 4.6.5-.8 1-1.6 2-1.5 1.8.2 1.9 4.8 2.5 6.7.8 1.3 3.2 3.3 4.7 4.1l2.3 4.1z" style="fill:url(#phingo_char_SVGID_8_)"/><linearGradient id="phingo_char_SVGID_9_" x1="16.3" x2="18.1" y1="66.7" y2="66.7" gradientTransform="matrix(1 0 0 -1 0 101)" gradientUnits="userSpaceOnUse"><stop offset="0" stop-color="#2479CC"/><stop offset="1" stop-color="#2479CC" stop-opacity=".2"/></linearGradient><path d="M16.3 29.7c.1 1.8.3 5.8 1.7 7.2.2-1.1-.9-5.5-1.7-7.2" style="fill:url(#phingo_char_SVGID_9_)"/><linearGradient id="phingo_char_SVGID_10_" x1="20.6" x2="23.1" y1="62.75" y2="62.75" gradientTransform="matrix(1 0 0 -1 0 101)" gradientUnits="userSpaceOnUse"><stop offset="0" stop-color="#2479CC"/><stop offset="1" stop-color="#2479CC" stop-opacity=".2"/></linearGradient><path d="M22.2 34.3c-.8 1.4-1.7 4.3-.8 8.5.9-1.3.9-5.4 1.7-8.4z" style="fill:url(#phingo_char_SVGID_10_)"/><linearGradient id="phingo_char_SVGID_11_" x1="23.35" x2="24.65" y1="66.9" y2="62.2" gradientTransform="matrix(1 0 0 -1 0 101)" gradientUnits="userSpaceOnUse"><stop offset="0" stop-color="#73C9FF"/><stop offset="1" stop-color="#3795EE" stop-opacity="0"/></linearGradient><path d="M21.8 38.7c-.3-1.1.9-5.5 2.4-5.4 1.3.2 1.3 4.8.7 5.8-.8 1-2.7.8-3.1-.4" style="fill:url(#phingo_char_SVGID_11_)"/><linearGradient id="phingo_char_SVGID_12_" x1="14.3" x2="15.9" y1="66.8" y2="66.8" gradientTransform="matrix(1 0 0 -1 0 101)" gradientUnits="userSpaceOnUse"><stop offset="0" stop-color="#73C9FF"/><stop offset="1" stop-color="#3795EE" stop-opacity="0"/></linearGradient><path d="M15.4 29.9c-1.1 1.2-1.5 4.1-.7 5.6.5.8 1.4-3.5 1.2-5.4z" style="fill:url(#phingo_char_SVGID_12_)"/><linearGradient id="phingo_char_SVGID_13_" x1="50.74" x2="64.6" y1="9.3" y2="9.3" gradientTransform="matrix(1 0 0 -1 0 101)" gradientUnits="userSpaceOnUse"><stop offset="0" stop-color="#2D82DA"/><stop offset="1" stop-color="#1859A5"/></linearGradient><path d="M55.4 85.9c-1.8 1.2-4.4 3.6-4.7 7.4.1 3.4 2 5 4.8 3.9 3-1.2 8.2-3.7 9.1-7.6l-4.4-2.9z" style="fill:url(#phingo_char_SVGID_13_)"/><linearGradient id="phingo_char_SVGID_14_" x1="51.2" x2="63.8" y1="9.4" y2="9.4" gradientTransform="matrix(1 0 0 -1 0 101)" gradientUnits="userSpaceOnUse"><stop offset="0" stop-color="#318BE0"/><stop offset="1" stop-color="#1D69BE"/></linearGradient><path d="M55.6 86.4c-2.7 1.5-5 6-4.3 8.6.8 2.3 2.6 1.8 3.8 1.4 3.2-1 8.3-3.7 8.7-6.4-1.7-1.1-6.9-3.6-8.2-3.6" style="fill:url(#phingo_char_SVGID_14_)"/><linearGradient id="phingo_char_SVGID_15_" x1="51.3" x2="55.6" y1="9.9" y2="9.9" gradientTransform="matrix(1 0 0 -1 0 101)" gradientUnits="userSpaceOnUse"><stop offset="0" stop-color="#5399DF"/><stop offset="1" stop-color="#2479CC" stop-opacity="0"/></linearGradient><path d="M55.6 86.4c-2.2 1.1-4.5 4.3-4.3 8 .4-3.9 2.1-6.1 4.3-8" style="fill:url(#phingo_char_SVGID_15_)"/><linearGradient id="phingo_char_SVGID_16_" x1="63.6" x2="80.6" y1="15.85" y2="15.85" gradientTransform="matrix(1 0 0 -1 0 101)" gradientUnits="userSpaceOnUse"><stop offset="0" stop-color="#1859A5"/><stop offset="1" stop-color="#2D82DA"/></linearGradient><path d="M64.8 82.4c2.3-.9 5.2-2.9 10.6-2.9 2.5.1 5.2.6 5.2 2.4 0 1.3-3.3 4.5-6.2 6.2-2.7 1.4-6.3 2.6-10.8 1.5l-.5-4.7z" style="fill:url(#phingo_char_SVGID_16_)"/><linearGradient id="phingo_char_SVGID_17_" x1="65.1" x2="80.5" y1="16.1" y2="16.1" gradientTransform="matrix(1 0 0 -1 0 101)" gradientUnits="userSpaceOnUse"><stop offset="0" stop-color="#1D69BE"/><stop offset="1" stop-color="#2D8BE6"/></linearGradient><path d="M65.1 82.7c3.3-1.6 7.3-2.8 10.1-2.8 1.9 0 5.4.8 5.3 1.7 0 1.3-4.4 4.8-6.1 5.9-2.7 1.4-6.1 2.2-9.3 1.3z" style="fill:url(#phingo_char_SVGID_17_)"/><linearGradient id="phingo_char_SVGID_18_" x1="32.4" x2="79.7" y1="38.95" y2="38.95" gradientTransform="matrix(1 0 0 -1 0 101)" gradientUnits="userSpaceOnUse"><stop offset="0" stop-color="#3493ED"/><stop offset="1" stop-color="#347BD1"/></linearGradient><path d="M55.6 85.9c-6.7-2.7-21.5-8.6-23.1-25.9-.4-4.5.9-10.6.9-12.8 3.5-3.8 23-8.3 34.7-6.8 2.2 3 4.3 12.8 4.1 16.9-.3 7.2-8.1 21-8.3 25 1.2 2.1 1.5 5 .5 7.3-2.3-.1-6-1.7-8.8-3.7" style="fill:url(#phingo_char_SVGID_18_)"/><radialGradient id="phingo_char_SVGID_19_" cx="44.8" cy="41.2" r="22.6" gradientTransform="matrix(1 0 0 -1 0 101)" gradientUnits="userSpaceOnUse"><stop offset=".387" stop-color="#F8F7FA"/><stop offset=".926" stop-color="#C6C8D6"/></radialGradient><path d="M59.9 87.6c-6-1.6-26.6-8.2-26.8-27.6 0-4.4 1.5-7.6 1.1-11.6 6.4-2 20.8-4 31.4-1.6 1 3.2 1.8 6.4 1.5 6.7C62.4 55.1 56.4 61 56.4 74c0 6.7 3.1 10.4 4 13.5z" style="fill:url(#phingo_char_SVGID_19_)"/><linearGradient id="phingo_char_SVGID_20_" x1="63.1" x2="65.1" y1="20.3" y2="20.3" gradientTransform="matrix(1 0 0 -1 0 101)" gradientUnits="userSpaceOnUse"><stop offset="0" stop-color="#377ECB"/><stop offset="1" stop-color="#68A0DE"/></linearGradient><path d="M63.6 77.6c-.5 2-.2 3.8 1.5 6.2.3-.9-1.7-2.7-1.2-6.2z" style="fill:url(#phingo_char_SVGID_20_)"/><radialGradient id="phingo_char_SVGID_21_" cx="48.5" cy="46.4" r="10.6" gradientTransform="matrix(1 0 0 -1 0 101)" gradientUnits="userSpaceOnUse"><stop offset="0" stop-color="#A9A9BA"/><stop offset="1" stop-color="#A9A9BA" stop-opacity="0"/></radialGradient><path d="M41.6 53.9c1.8 2.9 4.3 5.8 7.5 5.8 3 0 6.4-2.1 9-2l2.4-.4 1.4-1.4-4.5-1.4-13.7-1.8z" style="fill:url(#phingo_char_SVGID_21_)"/><linearGradient id="phingo_char_SVGID_22_" x1="53.7" x2="79.7" y1="68.65" y2="68.65" gradientTransform="matrix(1 0 0 -1 0 101)" gradientUnits="userSpaceOnUse"><stop offset="0" stop-color="#49B0F2"/><stop offset="1" stop-color="#2479CC"/></linearGradient><path d="M53.7 6.3c4-.3 8.7-.2 13.7 3.1 3.7 2.1 11.1 7.7 12.1 18.2 1 8.4-1.4 16.3-4.4 22.3-2.7 5.5-2.9 7.4-2.9 7.4-.8-1.8-1.3-3.7-2.8-4.1L53.7 12.4z" style="fill:url(#phingo_char_SVGID_22_)"/><radialGradient id="phingo_char_SVGID_23_" cx="52.5" cy="85.3" r="19.9" gradientTransform="matrix(1 0 0 -1 0 101)" gradientUnits="userSpaceOnUse"><stop offset="0" stop-color="#63C0FF"/><stop offset=".714" stop-color="#379EF1"/></radialGradient><path d="M55.6 6.3c-10.7 1.1-19.5 7.2-23.2 20.8-1 4-2 3.3-3.5 6.4l9.6 2.4 22 2.5 6.2-1.3c3.2-1.4 3.7-5.2 3.3-9.2-.4-3.5-3.9-6.4-7.1-6.3 2-1.1 4.8-1.2 6.8 0-.8-3-4.9-4.9-7.3-4.5 2-1.6 5-1.5 6.7-.8-3.2-5.4-9-9.2-13.5-10" style="fill:url(#phingo_char_SVGID_23_)"/><path d="M55.1 6.4c-4.4 0-12.7 1.2-18 9.1 4.8-5.6 10.3-8.1 18-9.1" style="fill:#2479cc"/><linearGradient id="phingo_char_SVGID_24_" x1="57.9" x2="68.5" y1="76.15" y2="76.15" gradientTransform="matrix(1 0 0 -1 0 101)" gradientUnits="userSpaceOnUse"><stop offset="0" stop-color="#49B0F2"/><stop offset="1" stop-color="#2479CC" stop-opacity="0"/></linearGradient><path d="M59.6 25.6c1.1-3 3.3-4.1 5-4 1.8.1 3.5 1.6 3.9 2.5-3-2.2-6.6-2.5-8.9 1.5" style="fill:url(#phingo_char_SVGID_24_)"/><linearGradient id="phingo_char_SVGID_25_" x1="38.9" x2="45.4" y1="80.8" y2="80.8" gradientTransform="matrix(1 0 0 -1 0 101)" gradientUnits="userSpaceOnUse"><stop offset="0" stop-color="#49B0F2"/><stop offset="1" stop-color="#2479CC" stop-opacity="0"/></linearGradient><path d="M38.9 20.7c1.6-2 5-3.1 6.5.9-1.5-2.1-3.7-2.6-6.5-.9" style="fill:url(#phingo_char_SVGID_25_)"/><linearGradient id="phingo_char_SVGID_26_" x1="28.3" x2="74.5" y1="57.5" y2="57.5" gradientTransform="matrix(1 0 0 -1 0 101)" gradientUnits="userSpaceOnUse"><stop offset="0" stop-color="#A9A9BA"/><stop offset=".539" stop-color="#F0EEF0"/><stop offset="1" stop-color="#BFC0CC"/></linearGradient><path d="M28.9 32.9c1.3-1.9 4.7-3.5 7.5-.5l1.5 1c1 .5 2.2.6 2.2.6 3-2.4 5.3-2.6 9-2.4 5.3.5 7.5 3.6 11.4 6 2.4-.3 5.4-.7 7.1-.8 4-.4 7 2.6 6.9 6.6s-3.1 8.1-8.1 9.8c-4.7 1.5-8.5 2.3-11.9 2.3-1.9 0-4.6.1-4.6.1-3.2.7-6-.2-7.5-2-5.3-2.2-15.5-9.7-14-18.7z" style="fill:url(#phingo_char_SVGID_26_)"/><linearGradient id="phingo_char_SVGID_27_" x1="47.4" x2="60.2" y1="69.2" y2="62.6" gradientTransform="matrix(1 0 0 -1 0 101)" gradientUnits="userSpaceOnUse"><stop offset="0" stop-color="#63C0FF"/><stop offset="1" stop-color="#2479CC" stop-opacity="0"/></linearGradient><path d="M45.6 30.9c3.3-.8 8.5 1.2 11.8 4.7 2.7 2.7 4 2.5 4 2.5l-1.5 1.5s-4.8-2.9-6.3-4.6c-1.5-1.6-5-3.4-9-3.6z" style="fill:url(#phingo_char_SVGID_27_)"/><path d="M36.1 28.1c.5-3.7 2.3-7.6 5.6-7.8 2.7-.2 4 3.1 3.3 7.3l-.9 4-3.7 2.3c-3-.5-4.8-1.5-4.3-5.8" class="cls-17"/><path d="M36.5 28.1c.6-3.2 3-6.5 5.6-6.5 2.5 0 3.3 2.8 2.8 6.1l-.8 4-3.7 1.7c-2.8 0-4.7-1.3-3.9-5.3" class="cls-18"/><path d="M36.6 29.1c0-2.4 2.5-7 5.5-7 1.6 0 2.5 1.4 2.9 3-.4-1.9-1.1-3.5-2.9-3.5-2.7 0-5.5 3.8-5.5 7.5" class="cls-19"/><linearGradient id="phingo_char_SVGID_28_" x1="38.2" x2="44.9" y1="71.45" y2="71.45" gradientTransform="matrix(1 0 0 -1 0 101)" gradientUnits="userSpaceOnUse"><stop offset="0" stop-color="#2479CC"/><stop offset="1" stop-color="#000720"/></linearGradient><path d="M38.4 28.5c.5-2.1 2.3-4 4-3.9s3 2 2.3 4.5c-.3 2-1 4.3-3.6 4.8-2 .1-3.5-2.3-2.7-5.4" style="fill:url(#phingo_char_SVGID_28_)"/><linearGradient id="phingo_char_SVGID_29_" x1="40.37" x2="40.37" y1="72.7" y2="66.8" gradientTransform="matrix(1 0 0 -1 0 101)" gradientUnits="userSpaceOnUse"><stop offset="0" stop-color="#002061"/><stop offset="1" stop-color="#1A65C2"/></linearGradient><path d="M39.2 28.4c.5-1.5 1.2 0 1.2 0-1.3 3.1.2 5.2 1.2 5.6-1 .5-3.5-1.1-2.4-5.6" style="fill:url(#phingo_char_SVGID_29_)"/><linearGradient id="phingo_char_SVGID_30_" x1="41.15" x2="41.15" y1="75.2" y2="73.2" gradientTransform="matrix(1 0 0 -1 0 101)" gradientUnits="userSpaceOnUse"><stop offset="0" stop-color="#fff"/><stop offset="1" stop-color="#fff" stop-opacity="0"/></linearGradient><path d="M40.2 26.1c.4-.6 1.2-1 1.7-.2.5.7 0 1.5-.5 1.7-.5.4-1 .3-1.3-.4z" style="fill:url(#phingo_char_SVGID_30_)"/><path d="M58.4 28.5c1-3.1 3.2-5.1 5.8-5.1 3.5.1 6.3 3.2 5.4 8.6-.5 2.4-1.2 4.9-3.2 5.4l-4.8.2c-3.2-.3-4.7-2.6-3.2-9.1" class="cls-17"/><path d="M58.4 29.5c1-2.9 3-4.9 5.5-4.9 3.2 0 5.8 3 5.5 7-.3 2.8-1.3 5.3-3 5.8l-3.8.2c-4.1 0-5.7-3-4.2-8.1" class="cls-19"/><path d="M58.6 29.5c1-2.8 2.8-4.4 5.1-4.4 3.2 0 5.7 2.8 5.4 6.6-.1 2.7-1.4 5.7-2.7 5.7l-3.8.2c-4 0-5.5-3.1-4-8.1" class="cls-18"/><path d="M58.6 30.4c.9-3 2.8-4.9 5.1-4.9 2.2 0 3.9 1.1 4.9 3.6-.9-2.2-2.5-3.2-4.5-3.2-2.5 0-4.7 1.7-5.5 4.5" class="cls-19"/><linearGradient id="phingo_char_SVGID_31_" x1="63.15" x2="63.15" y1="73.2" y2="63" gradientTransform="matrix(1 0 0 -1 0 101)" gradientUnits="userSpaceOnUse"><stop offset="0" stop-color="#002061"/><stop offset="1" stop-color="#1A65C2"/></linearGradient><path fill="url(#phingo_char_SVGID_31_)" d="M59.4 31.1c.6-2.2 2.7-4 4.5-3.5 2 .3 3.8 2.4 3.2 5.6-.5 2.3-1.5 4.4-4.5 4.4-2.7 0-4.1-3.2-3.2-6.5"/><linearGradient id="phingo_char_SVGID_32_" x1="63.3" x2="63.3" y1="69.4" y2="64.3" gradientTransform="matrix(1 0 0 -1 0 101)" gradientUnits="userSpaceOnUse"><stop offset="0" stop-color="#09142E"/><stop offset="1" stop-color="#002042"/></linearGradient><path fill="url(#phingo_char_SVGID_32_)" d="M60.7 32c.4-1.9 1.9-3.1 3.2-2.6 1.2.3 2 2 1.7 3.7-.2 1.6-1.5 3-3 2.9-1.2-.1-2.2-1.6-1.9-4"/><path d="M61.4 28.9c.5-.8 1.5-.8 1.8 0 .5.7 0 1.5-.6 1.7-.5.3-1.2-.1-1.4-.7z" class="cls-18"/><linearGradient id="phingo_char_SVGID_33_" x1="65.7" x2="66.6" y1="69.6" y2="69.6" gradientTransform="matrix(1 0 0 -1 0 101)" gradientUnits="userSpaceOnUse"><stop offset="0" stop-color="#1A65C2"/><stop offset="1" stop-color="#1A65C2" stop-opacity="0"/></linearGradient><path fill="url(#phingo_char_SVGID_33_)" d="M65.7 30c.4 0 .9.4.9 1 .1.5-.2 1-.5 1z"/><linearGradient id="phingo_char_SVGID_34_" x1="42.75" x2="42.75" y1="69.1" y2="57.8" gradientTransform="matrix(1 0 0 -1 0 101)" gradientUnits="userSpaceOnUse"><stop offset="0" stop-color="#57BAFA"/><stop offset=".49" stop-color="#3493ED"/><stop offset="1" stop-color="#2468B7"/></linearGradient><path fill="url(#phingo_char_SVGID_34_)" d="M37.9 36.8c.2-1.4 2.7-5.4 8-5.4 5.2 0 10.5 2.7 13.8 8.5-1.8 2-5.6 3.2-10.3 3.2-6.7 0-11.8-3.1-11.5-6.3"/><linearGradient id="phingo_char_SVGID_35_" x1="43.2" x2="46.2" y1="66.1" y2="66.1" gradientTransform="matrix(1 0 0 -1 0 101)" gradientUnits="userSpaceOnUse"><stop offset="0" stop-color="#9BD9FF"/><stop offset="1" stop-color="#9BD9FF" stop-opacity="0"/></linearGradient><path fill="url(#phingo_char_SVGID_35_)" d="M43.2 34.4c0-.8 2.2-1.2 2.9-.4.5.5.1 1.5-.7 1.5-1-.1-2.2-.6-2.2-1.1" opacity=".5"/><path d="M40.1 16.1c.6-2 3.6-4.4 5.6-3.1.7.5.5 1.5 0 1.4-2.1-1-4.2.2-5.3 1.6z" class="cls-25"/><linearGradient id="phingo_char_SVGID_36_" x1="40.9" x2="45.6" y1="86.6" y2="86.6" gradientTransform="matrix(1 0 0 -1 0 101)" gradientUnits="userSpaceOnUse"><stop offset="0" stop-color="#324A6B"/><stop offset="1" stop-color="#324A6B" stop-opacity="0"/></linearGradient><path fill="url(#phingo_char_SVGID_36_)" d="M40.9 15.1c.8-1.4 3.5-2.7 4.7-1.5l-.2.4c-1.8-.4-3-.1-4.5 1.1"/><path d="M63.7 16.9c.2-1.8 4.9-1.9 6.2 2.2l.1 1.3c-1.3-1.8-3.4-3.5-6.3-3.5" class="cls-25"/><linearGradient id="phingo_char_SVGID_37_" x1="63.7" x2="67.9" y1="84.25" y2="84.25" gradientTransform="matrix(1 0 0 -1 0 101)" gradientUnits="userSpaceOnUse"><stop offset="0" stop-color="#324A6B"/><stop offset="1" stop-color="#324A6B" stop-opacity="0"/></linearGradient><path fill="url(#phingo_char_SVGID_37_)" d="M63.7 16.7c-.1-1.1 3-1.1 4.2 0-1.3-.6-3-.6-4.2 0"/><linearGradient id="phingo_char_SVGID_38_" x1="60.1" x2="74.5" y1="59.8" y2="54.4" gradientTransform="matrix(1 0 0 -1 0 101)" gradientUnits="userSpaceOnUse"><stop offset="0" stop-color="#fff" stop-opacity=".2"/><stop offset="1" stop-color="#fff"/></linearGradient><path fill="url(#phingo_char_SVGID_38_)" d="M60.1 39.6c1-1.5 9-4.2 12.5-.7 3.5 3.2 2 7.2.1 9.8 1-4.6-6.1-9.3-12.6-9.1"/><linearGradient id="phingo_char_SVGID_39_" x1="60.6" x2="66.6" y1="62.1" y2="62.1" gradientTransform="matrix(1 0 0 -1 0 101)" gradientUnits="userSpaceOnUse"><stop offset="0" stop-color="#fff" stop-opacity=".8"/><stop offset="1" stop-color="#fff" stop-opacity="0"/></linearGradient><path fill="url(#phingo_char_SVGID_39_)" d="M60.6 39.4c1-1.3 4.1-2.1 6-1.8-2.7.5-4.2 1.1-6 1.8"/><linearGradient id="phingo_char_SVGID_40_" x1="40.7" x2="40.7" y1="67.6" y2="46.2" gradientTransform="matrix(1 0 0 -1 0 101)" gradientUnits="userSpaceOnUse"><stop offset="0" stop-color="#A9A9BA"/><stop offset=".461" stop-color="#F0EEF0"/><stop offset="1" stop-color="#D0D1DB"/></linearGradient><path fill="url(#phingo_char_SVGID_40_)" d="M37.9 35.9c-2.8.1-5 .7-7.8-2.7-2 5.2 2 12.4 12.6 20.3 3.2 2.5 6.7 2.1 10.9.4l1.3-1 1.5-5-3 2.2-3.4 1.8-4.1.2-2.3-1.1-1.9-3.4-1.8-7.2-1.8-2.3z"/><linearGradient id="phingo_char_SVGID_41_" x1="28.6" x2="37.4" y1="65.1" y2="65.1" gradientTransform="matrix(1 0 0 -1 0 101)" gradientUnits="userSpaceOnUse"><stop offset="0" stop-color="#DFDDE3"/><stop offset="1" stop-color="#fff"/></linearGradient><path fill="url(#phingo_char_SVGID_41_)" d="M28.9 32.9c2-2.5 5-2.9 7.2-.9 1 .9 1.5 2.5 1.3 3.4-2.8 0-5.8.5-7.8 2.2l-1-3.1z"/><linearGradient id="phingo_char_SVGID_42_" x1="35.41" x2="40" y1="61.9" y2="61.9" gradientTransform="matrix(1 0 0 -1 0 101)" gradientUnits="userSpaceOnUse"><stop offset="0" stop-color="#C6C8D6" stop-opacity=".5"/><stop offset="1" stop-color="#A9A9BA" stop-opacity="0"/></linearGradient><path fill="url(#phingo_char_SVGID_42_)" d="M37.9 35.9c-2 .2-3.3 1-2.5 2.8.8 2 2 2.7 3.2 1.3l1.4.4-1.9-3.3z"/><linearGradient id="phingo_char_SVGID_43_" x1="40.4" x2="43.2" y1="54.6" y2="54.6" gradientTransform="matrix(1 0 0 -1 0 101)" gradientUnits="userSpaceOnUse"><stop offset="0" stop-color="#fff" stop-opacity=".4"/><stop offset="1" stop-color="#fff" stop-opacity="0"/></linearGradient><path fill="url(#phingo_char_SVGID_43_)" d="m40.4 42.4 1.3 5.2 1.5 1.8-.8-2.3-1.5-3.7z"/><linearGradient id="phingo_char_SVGID_44_" x1="42.6" x2="54.6" y1="50.45" y2="50.45" gradientTransform="matrix(1 0 0 -1 0 101)" gradientUnits="userSpaceOnUse"><stop offset="0" stop-color="#fff" stop-opacity=".8"/><stop offset="1" stop-color="#fff" stop-opacity="0"/></linearGradient><path fill="url(#phingo_char_SVGID_44_)" d="M42.6 50.6c.8 2.5 5.3 4.1 10.1 1l1.9-1.6-.9-.5c-2.6 2.4-8.1 4.4-11.1 1.1"/><linearGradient id="phingo_char_SVGID_45_" x1="50.1" x2="50.1" y1="59.1" y2="47" gradientTransform="matrix(1 0 0 -1 0 101)" gradientUnits="userSpaceOnUse"><stop offset="0" stop-color="#4A0906"/><stop offset="1" stop-color="#210504"/></linearGradient><path fill="url(#phingo_char_SVGID_45_)" d="M40.1 40.4c1.6 4 1.8 8.9 4.5 11 1.8 1 4.1 1.3 6.5-.3 3.6-2.2 6.5-7.1 8.6-10.5-3 2-6.6 2.6-10.6 2.4-3.7 0-7-1.1-9-2.6"/><linearGradient id="phingo_char_SVGID_46_" x1="43.3" x2="55.2" y1="52" y2="52" gradientTransform="matrix(1 0 0 -1 0 101)" gradientUnits="userSpaceOnUse"><stop offset="0" stop-color="#FD867A"/><stop offset=".478" stop-color="#E66965"/><stop offset="1" stop-color="#AC3333"/></linearGradient><path fill="url(#phingo_char_SVGID_46_)" d="M43.6 47.1c1.1-2.1 4-3.1 6.4-2 1.9-.5 3.7-.2 5.2 1.3-.8 1.5-2.5 3.2-4.1 4.3-1.5 1.2-4.5 2-6.5.7-1.2-.7-1.7-2.8-1-4.3"/><linearGradient id="phingo_char_SVGID_47_" x1="46.8" x2="50" y1="53.2" y2="53.2" gradientTransform="matrix(1 0 0 -1 0 101)" gradientUnits="userSpaceOnUse"><stop offset="0" stop-color="#BF4242"/><stop offset="1" stop-color="#B83636"/></linearGradient><path fill="url(#phingo_char_SVGID_47_)" d="M46.8 49.4c.1-2 1.6-3.9 3.2-4.3-1.4-.1-3.6 1.3-3.2 4.3"/><linearGradient id="phingo_char_SVGID_48_" x1="47.1" x2="49.7" y1="50.7" y2="50.7" gradientTransform="matrix(1 0 0 -1 0 101)" gradientUnits="userSpaceOnUse"><stop offset="0" stop-color="#FF9488"/><stop offset="1" stop-color="#FFA799" stop-opacity="0"/></linearGradient><path fill="url(#phingo_char_SVGID_48_)" d="M47.1 50.6c-.2-1.2 1.8-2.2 2.6-1.2z"/><linearGradient id="phingo_char_SVGID_49_" x1="55.1" x2="61.5" y1="57.9" y2="57.9" gradientTransform="matrix(1 0 0 -1 0 101)" gradientUnits="userSpaceOnUse"><stop offset="0" stop-color="#A9A9BA" stop-opacity=".5"/><stop offset="1" stop-color="#A9A9BA" stop-opacity="0"/></linearGradient><path fill="url(#phingo_char_SVGID_49_)" d="M55.1 46.1c1.5-1.6 3.8-5.1 4.9-5.7l1.5 1.7-2.6 3.5z"/><linearGradient id="phingo_char_SVGID_50_" x1="59.9" x2="61.5" y1="58.6" y2="58.6" gradientTransform="matrix(1 0 0 -1 0 101)" gradientUnits="userSpaceOnUse"><stop offset="0" stop-color="#A9A9BA"/><stop offset="1" stop-color="#A9A9BA" stop-opacity="0"/></linearGradient><path fill="url(#phingo_char_SVGID_50_)" d="m59.9 40.4 1.6 2-.6 1z"/><linearGradient id="phingo_char_SVGID_51_" x1="60.9" x2="76" y1="35.2" y2="35.2" gradientTransform="matrix(1 0 0 -1 0 101)" gradientUnits="userSpaceOnUse"><stop offset="0" stop-color="#1454AA"/><stop offset="1" stop-color="#5399DF"/></linearGradient><path fill="url(#phingo_char_SVGID_51_)" d="M65.1 53.9c-4.5 2.5-8.7 9.8-8.7 19.6 0 6.9 3 10.6 4 14 1.5.9 3.5 1.6 4.2 2 1.1-2.1 1.8-4.6 0-7.1-.7-1.3-1.2-3.5-.7-4.8 1.5 1.1 4.7 2.5 6.1 1.1.6-.6.6-2.3-.1-3.5 2.7-1.3 6.2-3.8 6.1-9.6 0-3.7-3.6-7.5-3.9-8.7l-1-3z"/><linearGradient id="phingo_char_SVGID_52_" x1="62.1" x2="75.4" y1="34" y2="34" gradientTransform="matrix(1 0 0 -1 0 101)" gradientUnits="userSpaceOnUse"><stop offset="0" stop-color="#1A64C0"/><stop offset=".503" stop-color="#2479CC"/><stop offset="1" stop-color="#2962B3"/></linearGradient><path fill="url(#phingo_char_SVGID_52_)" d="M65.9 53.9c-4.8 2.2-6 4.7-4.4 9.6.6 1.6 2.2 2.6 2.2 2.6-2 2.6-2.8 7.8-.3 11.5 1.2 1.1 4.5 2.5 6.2 1.1.9-.6.5-2.7-.2-3.3 3.3-1.8 6.3-4.3 6-9.8-.3-3.6-2.8-6.7-4.3-9l-.5-2.7z"/><linearGradient id="phingo_char_SVGID_53_" x1="61.4" x2="66.7" y1="38.2" y2="38.2" gradientTransform="matrix(1 0 0 -1 0 101)" gradientUnits="userSpaceOnUse"><stop offset="0" stop-color="#1454AA"/><stop offset="1" stop-color="#1454AA" stop-opacity="0"/></linearGradient><path fill="url(#phingo_char_SVGID_53_)" d="M61.4 57.9c-.7 3.1 0 7.5 4.1 8.1l1.2-.6-2.1-3.5-.7-3.3z"/><linearGradient id="phingo_char_SVGID_54_" x1="62.1" x2="69.1" y1="30.1" y2="30.1" gradientTransform="matrix(1 0 0 -1 0 101)" gradientUnits="userSpaceOnUse"><stop offset="0" stop-color="#143F87"/><stop offset="1" stop-color="#2479CC" stop-opacity="0"/></linearGradient><path fill="url(#phingo_char_SVGID_54_)" d="M65.5 66c-1.9 1.1-4.4 5.5-2.4 9.7l1.3 1.9 4.7-2-.2-.2c-2.3.7-6-.7-5.5-3.9.5-2.6 3.3-4.8 5-5.4z"/><radialGradient id="phingo_char_SVGID_55_" cx="67.6" cy="38.1" r="6.4" gradientTransform="matrix(1 0 0 -1 0 101)" gradientUnits="userSpaceOnUse"><stop offset="0" stop-color="#3795EE"/><stop offset="1" stop-color="#2479CC" stop-opacity="0"/></radialGradient><path fill="url(#phingo_char_SVGID_55_)" d="M62.1 59.6c0-2 2.6-3.2 5-2.7 3.3.5 6.3 3.5 6 7.1-.4 4.1-5 5.9-7.5 5.6-2.4-.1-3.5-5.7-3.5-10"/><linearGradient id="phingo_char_SVGID_56_" x1="63.1" x2="67.4" y1="38.4" y2="38.4" gradientTransform="matrix(1 0 0 -1 0 101)" gradientUnits="userSpaceOnUse"><stop offset="0" stop-color="#2479CC" stop-opacity="0"/><stop offset="1" stop-color="#14489E"/></linearGradient><path fill="url(#phingo_char_SVGID_56_)" d="M63.1 58.6c-1.4 1.5-.5 5.9 3.6 7l.7-.2c-2.3-1.5-4.8-4.3-2.8-6.5z"/><linearGradient id="phingo_char_SVGID_57_" x1="70.5" x2="72.2" y1="43.45" y2="43.45" gradientTransform="matrix(1 0 0 -1 0 101)" gradientUnits="userSpaceOnUse"><stop offset="0" stop-color="#57BAFA"/><stop offset="1" stop-color="#57BAFA" stop-opacity="0"/></linearGradient><path fill="url(#phingo_char_SVGID_57_)" d="M70.9 53.1c-.7 1.3.7 3.5 1.3 4-.1-1.2-.7-2.2-1.3-4"/></svg>