<svg xmlns="http://www.w3.org/2000/svg" viewBox="0 0 180 109.4">
<!-- SVG created with Arrow, by QuiverAI (https://quiver.ai) -->
  <style type="text/css">.cls-0 {fill:url(#SVGID_1_);}
.cls-1 {fill:#687282;}
.cls-2 {fill:#DAE1EB;}
.cls-3 {fill:url(#SVGID_2_);}
.cls-4 {fill:url(#SVGID_3_);}
.cls-5 {fill:#3572E2;}
.cls-6 {fill:url(#SVGID_4_);}
.cls-7 {fill:url(#SVGID_5_);}
.cls-8 {fill:#FFFFFF;}
.cls-9 {fill:url(#SVGID_6_);}
.cls-10 {fill:#FFCEC0;}
.cls-11 {fill:#F79F40;}
.cls-12 {fill:#D3743A;}
.cls-13 {fill:url(#SVGID_7_);}
.cls-14 {fill:#1B1C21;}
.cls-15 {fill:#B64C41;}
.cls-16 {fill:#E88049;}
.cls-17 {fill:url(#SVGID_8_);}
.cls-18 {fill:#4B5666;}
.cls-19 {fill:#747E8E;}
.cls-20 {fill:url(#SVGID_9_);}
.cls-21 {fill:#FFD776;}
.cls-22 {fill:#EDB468;}
.cls-23 {fill:#96C9F2;}
.cls-24 {fill:#8CA8F2;}
.cls-25 {fill:#F6C564;}
.cls-26 {fill:#EDB266;}
.cls-27 {fill:#F1B6A4;}
.cls-28 {fill:url(#SVGID_10_);}
.cls-29 {fill:url(#SVGID_11_);}
.cls-30 {fill:#D18C39;}
.cls-31 {fill:url(#SVGID_12_);}</style>
  <radialGradient id="SVGID_1_" cx="79.8" cy="46.09" r="9.622" gradientTransform="matrix(1 0 0 .1217 0 40.35)" gradientUnits="userSpaceOnUse">
    <stop stop-color="#231815" stop-opacity=".2" offset="0"/>
    <stop stop-color="#231815" stop-opacity="0" offset="1"/>
  </radialGradient>
  <ellipse class="cls-0" cx="79.8" cy="46.1" rx="9.7" ry="1.1"/>
  <path class="cls-1" d="m63.7 12.6c1.2-5.6 6.2-12.6 15.9-12.6s17.4 4.8 17.7 15.3l-0.9-0.3c-0.4-8.4-7.9-13.5-16.3-13.5-7.5 0-13.1 4.4-14.8 10.3l-1.6 0.8z"/>
  <path class="cls-2" d="m64 11.7c1.8-5.7 6.9-11.7 15.6-11.7s16.6 4.5 17.7 13.7l-0.3-0.1c-0.9-7.7-8.1-13.4-17.4-13.4-7.2 0-13.1 4.3-15.3 11.1l-0.3 0.4z"/>
  <linearGradient id="SVGID_2_" x1="86.33" x2="90.6" y1="3.564" y2="5.142" gradientUnits="userSpaceOnUse">
    <stop stop-color="#62A1FC" offset="0"/>
    <stop stop-color="#3572E2" offset="1"/>
  </linearGradient>
  <path class="cls-3" d="m86.1 1.6c0.9-0.6 1.8-1.7 2.4-1.5 1.1 0.4 1.7 3.3-0.2 4.3l-1.9 0.7-2.2-1.9 1.9-1.6z"/>
  <linearGradient id="SVGID_3_" x1="87.65" x2="91.81" y1="3.597" y2="4.937" gradientUnits="userSpaceOnUse">
    <stop stop-color="#62A1FC" offset="0"/>
    <stop stop-color="#3572E2" offset="1"/>
  </linearGradient>
  <path class="cls-4" d="m87 4.6c1.6-0.5 3-2.6 4.4-2.6 1.3 0 0.7 3.5-1.5 4.1l-3.4-0.8 0.5-0.7z"/>
  <path d="m89.5 5.9c-2.8-1.5-4.9-2.6-8.2-2.7-3.6-0.1-9.2 0.4-13.9 6.7l-0.7 3.1 1.8 9.6 3.8 4.7-4.7 4.1c-1.9 4.9-1.9 11.5 4.2 12.6 3.3 0.6 9.5 1.6 16.6-0.1 3.7-0.9 4.5-4.6 4.3-5.6 2 0.2 4.2 0.1 4.2-1.6 0-1.4-4.3-3.9-6.6-8.2l-0.3-0.5 3.2-4.3 1.6-6.8c0.4-3.5-1.6-8.7-5.3-11z" fill="#62A1FC"/>
  <linearGradient id="SVGID_4_" x1="66.06" x2="76.61" y1="34.97" y2="36.01" gradientUnits="userSpaceOnUse">
    <stop stop-color="#62A1FC" offset="0"/>
    <stop stop-color="#3572E2" offset="1"/>
  </linearGradient>
  <path class="cls-6" d="m67.1 31.8c-1.5 3.5-1.7 10.7 3.8 11.9l4.6 0.9c-3.7-1.7-5.2-4.6-4.4-10.9l3.2-6.4-3.6-3-3.6 7.5z"/>
  <linearGradient id="SVGID_5_" x1="91.15" x2="96.94" y1="32.64" y2="34.52" gradientUnits="userSpaceOnUse">
    <stop stop-color="#62A1FC" offset="0"/>
    <stop stop-color="#5496FB" offset="1"/>
  </linearGradient>
  <path class="cls-7" d="m90.6 28.5c2.3 2.5 6.3 6.5 6.3 7.9 0 1.6-3.2 2-4.2 1.8l-1.9-6.9-1.4-2.4 1.2-0.4z"/>
  <path class="cls-5" d="m88.2 29c1.9 0.7 4.8 6.8 4.3 9.9l0.2-0.6c0.2-3.2-1.5-7.4-3.3-9.4l-1.2 0.1z"/>
  <linearGradient id="SVGID_6_" x1="80.12" x2="81.23" y1="27.03" y2="44.81" gradientUnits="userSpaceOnUse">
    <stop stop-color="#fff" offset=".177"/>
    <stop stop-color="#D9E5FB" offset=".8833"/>
    <stop stop-color="#B8C9E9" offset="1"/>
  </linearGradient>
  <path class="cls-9" d="m74.3 27.3c-3 1.8-4.7 7.7-3 12.6 1 3 3 5 8.6 5.2 6.5-0.1 9.7-0.8 10.7-3.9 1.7-4.1-0.3-10.6-2.5-12.2l-13.8-1.7z"/>
  <path class="cls-8" d="m75.7 8.9c-3.7 0-6.6 4-6.4 7.2 0 1 0.4 2.2 1 2.9-2.1 0.9-1 5.3 4 8.3 3.8 1.4 11.3 2 13.8 1.7s5.9-4 5-6.9c0.7-0.4 1.1-2.8 1.1-4.8-0.1-3-2.3-6.7-5.6-6.7-2.4 0-5.3 2.4-5.6 5.3-0.4-4.3-2.9-7-7.3-7z"/>
  <linearGradient id="SVGID_7_" x1="60.97" x2="65.56" y1="16.02" y2="16.02" gradientUnits="userSpaceOnUse">
    <stop stop-color="#3572E2" offset="0"/>
    <stop stop-color="#5496FB" offset="1"/>
  </linearGradient>
  <path class="cls-13" d="m64.2 11.4c-3.3 1.1-4.2 5.9-1.9 9.2l3.3-0.1 0.8-8.4-2.2-0.7z"/>
  <path class="cls-14" d="m75.9 14.9c-1.1 0.2-2 1.7-1.7 3.2 0.4 1.5 1.7 2.4 3.2 1.6 2.2-1.1 1.6-5.2-1.5-4.8z"/>
  <path class="cls-8" d="m77.1 15.9c-0.7 0-1 1.2-0.1 1.5 0.9 0.2 1.1-1.4 0.1-1.5z"/>
  <path class="cls-14" d="m87.6 16.7c-2 0.6-2.7 4.3 0 5 3 0.7 3.8-5.7 0-5z"/>
  <path class="cls-8" d="m88.6 17.4c-0.7 0.2-0.7 1.6 0.3 1.6s0.7-1.9-0.3-1.6z"/>
  <linearGradient id="SVGID_8_" x1="82.25" x2="82.25" y1="18.46" y2="24.55" gradientUnits="userSpaceOnUse">
    <stop stop-color="#FAD256" offset="0"/>
    <stop stop-color="#F49635" offset="1"/>
  </linearGradient>
  <path class="cls-17" d="m79.5 20c0.6-1.5 4.9-3.4 5.4 0.7-1.5 5.4-5.4 4.4-5.4-0.7z"/>
  <path d="m80.4 20.7 4.1 0.7c-1.4 4-4.1 2.7-4.1-0.7z" fill="#C96E35"/>
  <path class="cls-15" d="m80.9 21.4 3 0.6c-1 2-3 1.4-3-0.6z"/>
  <path class="cls-16" d="m80.9 21.4c0.5 1.7 2 2 3 0.6l-3-0.6z"/>
  <linearGradient id="SVGID_9_" x1="79.61" x2="84.87" y1="19.82" y2="19.82" gradientUnits="userSpaceOnUse">
    <stop stop-color="#DF851F" offset="0"/>
    <stop stop-color="#FAD256" offset="1"/>
  </linearGradient>
  <path class="cls-20" d="m79.6 20.4 5.3 0.7c0-1.1-0.8-2.7-2.5-2.6-1.8 0-2.8 1.1-2.8 1.9z"/>
  <path class="cls-12" d="m79.5 20c0.2 3.6 2.9 6 5 1.4-1.4 3.6-4.8 3-5-1.4z"/>
  <path class="cls-11" d="m68.9 43.3c-1.3 0.1-2.8 1.7-1.8 2.7 1 0.9 2.5 0.9 5.5 0.7 2.9 0 4.1-1.1 4.1-1.7-1.8-0.3-5.6-1.1-7.8-1.7z"/>
  <path class="cls-11" d="m84.9 45c1.7 0.9 3 1.4 5.2 1.3 3-0.2 4.3-0.7 3.8-2.6-0.3-1-2-1.4-2.8-1.1-1.2 0.7-3.2 1.8-6.2 2.4z"/>
  <path class="cls-2" d="m65.6 10.1 0.8 0.1c1 0.2 2.2 3.2 1 9.7l-1.3 0.7-1.4-0.6c0.9-2.6 1.2-8.3 0.9-9.9z"/>
  <path class="cls-18" d="m66.1 10.1c1.8-0.5 3.5 4.3 1.3 10.5l-1.3-0.6c0.8-2.6 1-8.4 0-9.9z"/>
  <path class="cls-19" d="m64.7 11.4 0.9-0.5c1 0.7 0.8 5.7 0 9.1h-0.9c0.7-2.9 0.9-7.4 0-8.6z"/>
  <linearGradient id="SVGID_10_" x1="95.43" x2="99.03" y1="19.12" y2="19.51" gradientUnits="userSpaceOnUse">
    <stop stop-color="#3572E2" offset="0"/>
    <stop stop-color="#5496FB" offset="1"/>
  </linearGradient>
  <path class="cls-28" d="m97.1 14.9c2.5 0.2 2.5 8.2-1.4 9l1.4-9z"/>
  <path class="cls-18" d="m95.1 14 1-0.4c1 0.5 1.3 7.4-0.7 10.8l-1.5 0.2c1.2-2.5 1.7-8.2 1.2-10.6z"/>
  <path class="cls-1" d="m91.9 26.9c2.5 0.5 4.5-0.9 4.7-3.3h-0.5c-0.2 2.1-2 3.5-4.7 2.8l0.5 0.5z"/>
  <path class="cls-18" d="m88.9 25.7c0.5-0.8 2.5-0.6 2.5 0.4 0 1.2-2.5 1.5-2.5-0.4z"/>
  <linearGradient id="SVGID_11_" x1="63.32" x2="69.95" y1="25.78" y2="27.55" gradientUnits="userSpaceOnUse">
    <stop stop-color="#4180EE" offset="0"/>
    <stop stop-color="#5496FB" offset="1"/>
  </linearGradient>
  <path class="cls-29" d="m62.6 20.2c-1.5 2.9 1.3 9.2 6.5 12.5l2.3-1.8-0.3-4.9c-1.5-3.3-6.2-8.4-8.5-5.8z"/>
  <path class="cls-30" d="m67.9 46c-0.5-0.4 0-1.4 0.2-1.6-0.5 0.2-1 1.2-0.2 1.6z"/>
  <path class="cls-30" d="m68.4 46.4c-0.5-0.4 0-1.3 0.2-1.5-0.5 0.1-1 1.2-0.2 1.5z"/>
  <path class="cls-30" d="m93.6 45.4c0.8-0.5 0.5-1.4 0.1-1.8 0.4 0.4 0.7 1.4-0.1 1.8z"/>
  <ellipse class="cls-10" cx="73.1" cy="20.4" rx="1.5" ry="1"/>
  <ellipse class="cls-10" cx="90.4" cy="22.9" rx="1.6" ry="1"/>
  <path class="cls-2" d="m96.1 13.6c0.5 2.5 0.3 8.1-1 10.8h0.4c1.4-3.5 1.6-9.3 0.6-10.8z"/>
  <linearGradient id="SVGID_12_" x1="63.27" x2="64.61" y1="14.1" y2="14.1" gradientUnits="userSpaceOnUse">
    <stop stop-color="#62A1FC" offset="0"/>
    <stop stop-color="#72B1FF" offset="1"/>
  </linearGradient>
  <path class="cls-31" d="m63.3 13.4c-0.4 1.7 0.4 3.2 1.1 2.2s0.5-4.5-1.1-2.2z"/>
  <ellipse cx="16.6" cy="108.5" rx="7.5" ry=".8" fill="#000" fill-opacity=".1"/>
  <linearGradient id="SVGID_13_" x1="21.1" x2="29.9" y1="106.8" y2="106.8" gradientUnits="userSpaceOnUse">
    <stop stop-color="#DF851F" offset="0"/>
    <stop stop-color="#FCC447" offset="1"/>
  </linearGradient>
  <path d="m21.1 107c1.3 1 2.5 1.5 5.4 1.5 2.5 0 4-0.6 3.1-2.1-1-1.3-2.4-1.3-3.4-0.9l-5.1 1.5z" fill="url(#SVGID_13_)" stroke="#AC631B" stroke-width=".15"/>
  <linearGradient id="SVGID_14_" x1="7.2" x2="15.8" y1="107.2" y2="107.2" gradientUnits="userSpaceOnUse">
    <stop stop-color="#DF851F" offset="0"/>
    <stop stop-color="#FCC447" offset="1"/>
  </linearGradient>
  <path d="m8.5 105.7c-1 0.2-2.3 2.3-0.5 2.9 1.5 0.5 5.9 0.9 7.8-1.6l-4.8-1.3h-2.5z" fill="url(#SVGID_14_)" stroke="#AC631B" stroke-width=".15"/>
  <path d="m28.4 94.6 3.5 4.8c1.6 2 0.3 3.2-3.5 3.5l-1.5-5.4 1.5-2.9z" fill="#3572E2"/>
  <linearGradient id="SVGID_15_" x1="27.41" x2="32.69" y1="98.6" y2="98.6" gradientUnits="userSpaceOnUse">
    <stop stop-color="#4180EE" offset="0"/>
    <stop stop-color="#5496FB" offset="1"/>
  </linearGradient>
  <path d="m28.2 94.5 3.7 4.9c1.7 2.1 0 3.1-3 3.2l-1.5-6 0.8-2.1z" fill="url(#SVGID_15_)"/>
  <path d="m26.9 72.9c-2.2-0.5-4.2-2-9-2.3-6.9 0.3-11.2 6-11.3 10.4-0.7 5 1.9 11.9 1.9 11.9l8 14.1 7.9-0.5c3-0.9 4.6-2.4 4.1-6-0.1-1.9-0.9-4.6-1.4-5.9 2.5-0.5 6.5-4.2 6.3-11.1-0.2-4.1-3-9-6.5-10.6z" fill="#62A1FC"/>
  <linearGradient id="SVGID_16_" x1="5.849" x2="11.9" y1="93.15" y2="93.15" gradientUnits="userSpaceOnUse">
    <stop stop-color="#4180EE" offset="0"/>
    <stop stop-color="#3572E2" offset="1"/>
  </linearGradient>
  <path d="m6.9 93.4c-1.5 4.1-1.7 11 5 13l3 0.2-3-15-4.3-0.9-0.7 2.7z" fill="url(#SVGID_16_)"/>
  <linearGradient id="SVGID_17_" x1="22.64" x2="26.98" y1="69.65" y2="69.65" gradientUnits="userSpaceOnUse">
    <stop stop-color="#4180EE" offset="0"/>
    <stop stop-color="#64A7FF" offset="1"/>
  </linearGradient>
  <path d="m21.1 70.6 0.8-1.4 0.8 0.3c0.9-0.4 1.7-2.6 2.4-2.6 1 0 2.5 3.5-0.7 5l-3.3-1.3z" fill="url(#SVGID_17_)"/>
  <linearGradient id="SVGID_18_" x1="23.4" x2="28.6" y1="71.4" y2="71.4" gradientUnits="userSpaceOnUse">
    <stop stop-color="#4180EE" offset="0"/>
    <stop stop-color="#5496FB" offset="1"/>
  </linearGradient>
  <path d="m23.4 71.9c2.7-0.5 4-2.8 4.7-2.5 1.1 0.6 0.5 3.7-2.2 3.7l-2.5-1.2z" fill="url(#SVGID_18_)"/>
  <radialGradient id="SVGID_19_" cx="18.2" cy="91.1" r="10.36" gradientTransform="matrix(1 0 0 1.031 0 -2.824)" gradientUnits="userSpaceOnUse">
    <stop stop-color="#fff" offset=".422"/>
    <stop stop-color="#D9E5FB" offset="1"/>
  </radialGradient>
  <path d="m12.2 91.7c-2.8 2.4-4.8 11.5-0.1 14.4 2.4 1.3 10.4 1.5 12.4 0 4.4-2.4 2.4-10.2 0.6-11.5l-12.9-2.9z" fill="url(#SVGID_19_)"/>
  <radialGradient id="SVGID_20_" cx="18.1" cy="84.1" r="9.474" gradientTransform="matrix(1 0 0 1.031 0 -2.637)" gradientUnits="userSpaceOnUse">
    <stop stop-color="#fff" offset=".422"/>
    <stop stop-color="#D9E5FB" offset="1"/>
  </radialGradient>
  <path d="m10.1 83.6c-2 1.1-1 5.8 2.1 8l0.4 0.8 12.1 2.2c3.7-0.2 6.9-4.5 5.2-6.2 1.7-0.9 3-7.3-0.8-10.3-3-2.2-6.6 0.3-7.5 3.3 0-6.3-6.7-9.5-10.4-4.8-2 2.1-2 6-1.1 7z" fill="url(#SVGID_20_)"/>
  <path d="m15.1 80c-2.2 1-2.1 5.5 1 5.1 2.6-0.5 2.5-6-1-5.1z" fill="#1B1C21"/>
  <path class="cls-8" d="m16.1 80.9c-0.9 0.1-0.7 1.7 0.3 1.5s0.7-1.8-0.3-1.5z"/>
  <path d="m25.4 82.6c-2.4 0.8-2.7 4.8 0.6 5.1 2.4-0.2 2.6-5.5-0.6-5.1z" fill="#1B1C21"/>
  <path class="cls-8" d="m26.2 83.4c-0.8 0.2-0.6 1.8 0.4 1.3s0.5-1.6-0.4-1.3z"/>
  <linearGradient id="SVGID_21_" x1="17.6" x2="22.9" y1="87.2" y2="87.2" gradientUnits="userSpaceOnUse">
    <stop stop-color="#DF851F" offset="0"/>
    <stop stop-color="#FAD256" offset="1"/>
  </linearGradient>
  <path d="m17.6 85.7c1.5-2.8 5.4-2.3 5.3 1-1.7 4.9-5 4-5.3-1z" fill="url(#SVGID_21_)"/>
  <path d="m18.1 86 4.6 1c-1.6 3.6-4.5 3-4.6-1z" fill="#47200D"/>
  <path d="m18.6 86.7 3.5 0.7c-1 2.6-3.4 2.2-3.5-0.7z" fill="#BF5C45"/>
  <path d="m18.6 86.7c0.5 2.2 2.5 2.7 3.5 0.7l-3.5-0.7z" fill="#F28E6C"/>
  <linearGradient id="SVGID_22_" x1="17.8" x2="22.9" y1="85.21" y2="85.21" gradientUnits="userSpaceOnUse">
    <stop stop-color="#FAD256" offset="0"/>
    <stop stop-color="#F6C344" offset="1"/>
  </linearGradient>
  <path d="m17.9 85.6 5 1c0-1.7-2.3-4-5-1z" fill="url(#SVGID_22_)"/>
  <linearGradient id="SVGID_23_" x1="1.296" x2="8.496" y1="86.9" y2="86.9" gradientUnits="userSpaceOnUse">
    <stop stop-color="#4180EE" offset="0"/>
    <stop stop-color="#5496FB" offset="1"/>
  </linearGradient>
  <path d="m2.6 78.1c-2.7 0.3-2.3 8 4.3 15.4l2.8-0.4-1.3-8.6c-0.7-3-3.2-6.4-5.8-6.4z" fill="url(#SVGID_23_)"/>
  <path class="cls-30" d="m8.4 108.5c-0.5-0.5-0.2-1.5 0.2-1.8-0.5 0.3-1 1.4-0.2 1.8z"/>
  <path class="cls-30" d="m9 108.7c-0.5-0.5-0.3-1.3 0.2-1.6-0.6 0.4-1 1.3-0.2 1.6z"/>
  <path class="cls-30" d="m26.5 108c-0.3-0.4 0.1-1.1 0.4-1.3-0.5 0.2-0.9 0.9-0.4 1.3z"/>
  <path class="cls-30" d="m28.7 108c0.3-0.4 0-1-0.3-1.3 0.5 0.3 0.8 0.9 0.3 1.3z"/>
  <ellipse class="cls-10" cx="12.2" cy="85.2" rx="1.5" ry="1"/>
  <ellipse class="cls-10" cx="27.7" cy="89.1" rx="1.5" ry="1"/>
  <ellipse cx="73" cy="108.7" rx="8.1" ry=".8" fill="#000" fill-opacity=".1"/>
  <linearGradient id="SVGID_24_" x1="61.8" x2="70.5" y1="107.7" y2="107.7" gradientUnits="userSpaceOnUse">
    <stop stop-color="#DF851F" offset="0"/>
    <stop stop-color="#FCC447" offset="1"/>
  </linearGradient>
  <path d="m63.5 106.5c-0.9 0.2-2.9 2.6 0.1 2.7 2.4 0.2 5.9 0 6.9-1.6l-4.9-1.1h-2.1z" fill="url(#SVGID_24_)" stroke="#AC631B" stroke-width=".15"/>
  <linearGradient id="SVGID_25_" x1="75.5" x2="84.1" y1="107.6" y2="107.6" gradientUnits="userSpaceOnUse">
    <stop stop-color="#DF851F" offset="0"/>
    <stop stop-color="#FCC447" offset="1"/>
  </linearGradient>
  <path d="m75.5 107.6c1.9 1.4 3.9 1.6 6.4 1.4 3 0 2.8-1.9 1.2-2.4-1-0.2-2-0.2-2.7 0l-4.9 1z" fill="url(#SVGID_25_)" stroke="#AC631B" stroke-width=".15"/>
  <path d="m82.7 93.9c1.7 1.7 4 3.6 5.9 4.8 1.8 1.2 0.8 2.8-4.4 2.9l-2.6-5.7 1.1-2z" fill="#3572E2"/>
  <linearGradient id="SVGID_26_" x1="82.1" x2="89.1" y1="97.6" y2="97.6" gradientUnits="userSpaceOnUse">
    <stop stop-color="#62A1FC" offset="0"/>
    <stop stop-color="#3572E2" offset="1"/>
  </linearGradient>
  <path d="m82.7 93.9c1.7 2 3.9 3.5 5.7 4.7 2 1.3 1.3 3.3-4.2 3l-2.1-6 0.6-1.7z" fill="url(#SVGID_26_)"/>
  <linearGradient id="SVGID_27_" x1="55.7" x2="64.6" y1="97.7" y2="97.7" gradientUnits="userSpaceOnUse">
    <stop stop-color="#4180EE" offset="0"/>
    <stop stop-color="#5496FB" offset="1"/>
  </linearGradient>
  <path d="m63.5 94.2c-2.3 1.5-6.9 2.9-7.8 3.9-0.5 2 4 3.8 6.4 3.3l2.5-4.8-1.1-2.4z" fill="url(#SVGID_27_)"/>
  <linearGradient id="SVGID_28_" x1="59" x2="85.6" y1="87.6" y2="87.6" gradientUnits="userSpaceOnUse">
    <stop stop-color="#4180EE" offset="0"/>
    <stop stop-color="#64A7FF" offset="1"/>
  </linearGradient>
  <path d="m69.6 73.2c-4 0.2-10.5 4.4-10.5 11.4 0 4 2.4 8.3 4.4 9.3l-1.9 7.2c0.3 4 2.4 5.5 4.5 5.8l13.6 0.2c3-0.5 4.4-2.1 4.4-5.7 0-2.3-0.5-4.5-1.4-7.5 1.4-0.8 2.9-4.3 2.9-8.8-0.1-5-4.2-11.5-9.4-11.6l-5.6-0.8-1 0.5z" fill="url(#SVGID_28_)"/>
  <linearGradient id="SVGID_29_" x1="69.9" x2="77.4" y1="71.4" y2="71.4" gradientUnits="userSpaceOnUse">
    <stop stop-color="#62A1FC" offset="0"/>
    <stop stop-color="#3572E2" offset="1"/>
  </linearGradient>
  <path d="m70.1 73.1 0.5-1.5 0.5-0.1c1-1.1 1.3-2.9 2-2.9 1 0 2.5 2.9 0.9 4.4l2.2 0.6-3.6 0.3-2.5-0.8z" fill="url(#SVGID_29_)"/>
  <linearGradient id="SVGID_30_" x1="73" x2="77.4" y1="71.9" y2="71.9" gradientUnits="userSpaceOnUse">
    <stop stop-color="#62A1FC" offset="0"/>
    <stop stop-color="#3572E2" offset="1"/>
  </linearGradient>
  <path d="m73 73.6c1.7-0.7 2.4-3.6 3.6-3.6 1.1 0.4 1.3 3-0.7 3.9l-2.9-0.3z" fill="url(#SVGID_30_)"/>
  <radialGradient id="SVGID_31_" cx="73.5" cy="99.1" r="8.457" gradientTransform="matrix(1 0 0 1.031 0 -3.027)" gradientUnits="userSpaceOnUse">
    <stop stop-color="#fff" offset=".422"/>
    <stop stop-color="#D9E5FB" offset="1"/>
  </radialGradient>
  <path d="m67.1 95c-2.4 2.1-4.2 11.7 2.4 12.5 6.7 0.4 12.6 0.2 12.6-6.4 0-2.2-1-5.4-2.4-6.7l-12.6 0.6z" fill="url(#SVGID_31_)"/>
  <radialGradient id="SVGID_32_" cx="73.5" cy="86.6" r="9.123" gradientTransform="matrix(1 0 0 1.031 0 -2.77)" gradientUnits="userSpaceOnUse">
    <stop stop-color="#fff" offset=".422"/>
    <stop stop-color="#D9E5FB" offset="1"/>
  </radialGradient>
  <path d="m63.6 88.4c-2-1.8-2.5-8 2-10 3.1-1.3 7.1 1.2 7.6 4.3 0.5-4.1 4.4-7.1 7.5-5.1 3.2 2 3.9 6.6 2.7 8.4 1.5 1 0.5 6.1-3.8 8.4-3.5 0.3-10.5 1.3-12.5 0.3-3.2-1.1-5-4.7-3.5-6.3z" fill="url(#SVGID_32_)"/>
  <path d="m67.9 83.4c-1.8 0.8-2 4.8 1 5 2.8-0.3 2.1-5.7-1-5z" fill="#1B1C21"/>
  <path d="m68.9 84c-0.8 0.2-0.5 1.6 0.3 1.4s0.5-1.7-0.3-1.4z" fill="#fff"/>
  <path d="m77.9 82.4c-2 0.3-2.3 4.5 0.3 4.7 3.2 0 2.2-5-0.3-4.7z" fill="#1B1C21"/>
  <path d="m78.4 83.1c-0.8 0.1-0.5 1.5 0.3 1.1 0.9-0.2 0.5-1.3-0.3-1.1z" fill="#fff"/>
  <linearGradient id="SVGID_33_" x1="71.4" x2="76.4" y1="88.2" y2="88.2" gradientUnits="userSpaceOnUse">
    <stop stop-color="#DF851F" offset="0"/>
    <stop stop-color="#FAD256" offset="1"/>
  </linearGradient>
  <path d="m71.4 87.4c0.5-2.4 4.3-3.4 5 0-0.2 4.5-4.2 5.2-5 0z" fill="url(#SVGID_33_)"/>
  <path d="m71.7 87.5 4.5-0.1c-0.6 4.2-4.1 4-4.5 0.1z" fill="#47200D"/>
  <path d="m72.4 88h3.2c-0.5 2.5-3 2.4-3.2 0z" fill="#BF5C45"/>
  <path d="m72.4 88c0.5 2 2.7 2 3.2 0h-3.2z" fill="#F28E6C"/>
  <linearGradient id="SVGID_34_" x1="71.4" x2="76.4" y1="86.45" y2="86.45" gradientUnits="userSpaceOnUse">
    <stop stop-color="#FAD256" offset="0"/>
    <stop stop-color="#F6C344" offset="1"/>
  </linearGradient>
  <path d="m71.4 87.4 5-0.3c-0.7-2.4-3.8-2.9-5 0.3z" fill="url(#SVGID_34_)"/>
  <path class="cls-30" d="m66.6 108.9c-0.4-0.4 0-0.9 0.3-1.3-0.5 0.4-0.8 1-0.3 1.3z"/>
  <path class="cls-30" d="m80.7 108.7c-0.3-0.3 0-1 0.2-1.2-0.3 0.2-0.7 1-0.2 1.2z"/>
  <ellipse class="cls-10" cx="66.2" cy="89.6" rx="1.4" ry=".9"/>
  <ellipse class="cls-10" cx="81.5" cy="87.5" rx="1.4" ry=".9"/>
  <path d="m82.6 94.6c1.5 2.5 2.1 5.1 1.5 8.5l0.1-1.5c0.2-2.6-0.6-4.9-1.6-7z" fill="#3572E2"/>
  <ellipse cx="117.9" cy="108.7" rx="8.1" ry=".8" fill="#000" fill-opacity=".1"/>
  <linearGradient id="SVGID_35_" x1="108.1" x2="116.6" y1="107.6" y2="107.6" gradientUnits="userSpaceOnUse">
    <stop stop-color="#DF851F" offset="0"/>
    <stop stop-color="#FCC447" offset="1"/>
  </linearGradient>
  <path d="m110 106.4c-1.6 0-3.5 2.2-0.6 2.6 2.3 0.4 6.3 0 7.2-1.4l-4.5-1.2h-2.1z" fill="url(#SVGID_35_)" stroke="#AC631B" stroke-width=".15"/>
  <linearGradient id="SVGID_36_" x1="120.5" x2="129.4" y1="107.6" y2="107.6" gradientUnits="userSpaceOnUse">
    <stop stop-color="#DF851F" offset="0"/>
    <stop stop-color="#FCC447" offset="1"/>
  </linearGradient>
  <path d="m120.5 107.5c2.1 1.4 4.2 1.9 6.9 1.6 3.2 0 2.3-2.4 0.2-2.7l-2-0.4-5.1 1.5z" fill="url(#SVGID_36_)" stroke="#AC631B" stroke-width=".15"/>
  <linearGradient id="SVGID_37_" x1="127.4" x2="133.6" y1="98.4" y2="98.4" gradientUnits="userSpaceOnUse">
    <stop stop-color="#4180EE" offset="0"/>
    <stop stop-color="#5496FB" offset="1"/>
  </linearGradient>
  <path d="m127.4 94.4c1.2 1.7 4.2 5.7 5.2 6.5 1.8 1.2 1.8 2.7 0 2.8-1 0.2-3.5-0.1-3.5-0.1l-0.7-4.9-1-4.3z" fill="url(#SVGID_37_)"/>
  <linearGradient id="SVGID_38_" x1="100.6" x2="110.2" y1="91.9" y2="91.9" gradientUnits="userSpaceOnUse">
    <stop stop-color="#4180EE" offset="0"/>
    <stop stop-color="#3572E2" offset="1"/>
  </linearGradient>
  <path d="m105.1 83.7c-1-0.7-3.5 1.8-2.5 5.2-2 0.2-2.5 2.5-0.5 5.2 1.9 2.4 4.8 4.4 6.8 4.3l1.3-2.9-3.7-8.9-1.4-2.9z" fill="url(#SVGID_38_)"/>
  <linearGradient id="SVGID_39_" x1="106.2" x2="132.4" y1="87.15" y2="87.15" gradientUnits="userSpaceOnUse">
    <stop stop-color="#62A1FC" offset="0"/>
    <stop stop-color="#4180EE" offset="1"/>
  </linearGradient>
  <path d="m118.2 72.7c-6.7 0-12 5.7-12 11.5 0 2.8 1.7 6.2 4 8.2l-2.7 6.1c-0.3 4.4 1.6 7.9 4.6 8.1l12 0.4c3.8 0 4.5-1.6 4.5-5.3l-1-6.6c2.3 0 4.8-3.7 4.8-8.6 0-5.9-5.3-13.1-9-12.9l-5.2-0.9z" fill="url(#SVGID_39_)"/>
  <linearGradient id="SVGID_40_" x1="118.2" x2="125.6" y1="71.5" y2="71.5" gradientUnits="userSpaceOnUse">
    <stop stop-color="#62A1FC" offset="0"/>
    <stop stop-color="#3572E2" offset="1"/>
  </linearGradient>
  <path d="m118.2 72.7c1.8-0.7 2.4-3.7 3.3-3.8 1-0.2 2.6 3.1-0.4 4.7l3 0.4c2.1-0.1 2.1-3.3 0.5-3.8-0.7 0.2-2.2 2.2-3.5 2.7l-2.9-0.2z" fill="url(#SVGID_40_)"/>
  <radialGradient id="SVGID_41_" cx="118.1" cy="100.1" r="7.912" gradientTransform="matrix(1 0 0 1.031 0 -3.157)" gradientUnits="userSpaceOnUse">
    <stop stop-color="#fff" offset=".422"/>
    <stop stop-color="#D9E5FB" offset="1"/>
  </radialGradient>
  <path d="m112.4 94.1c-3 2-4.8 11.6 2 13.3 6.5 0.6 12 0.2 12-5.3 0-2.4-0.8-5.7-2.3-7.1l-11.7-0.9z" fill="url(#SVGID_41_)"/>
  <radialGradient id="SVGID_42_" cx="118.1" cy="85.7" r="9.016" gradientTransform="matrix(1 0 0 1.031 0 -2.79)" gradientUnits="userSpaceOnUse">
    <stop stop-color="#fff" offset=".422"/>
    <stop stop-color="#D9E5FB" offset="1"/>
  </radialGradient>
  <path d="m108.4 84.7c-1.4-2.1 0.7-8.1 5-8 3.6 0 5 2.9 5.2 5.4 0.8-3 4.3-5.2 7.1-4.1 4.4 1.6 4.9 8.4 2.2 10.6 1.7 1.4 0.3 5.1-3.8 6.4-3 0.4-10.2-0.1-11.7-0.9-3.3-1.2-6.3-6.7-4-9.4z" fill="url(#SVGID_42_)"/>
  <path d="m122.9 83.4c-1.5 1.1-2.2 4.1 0.5 4.7 3 0.4 2.5-5.7-0.5-4.7z" fill="#1B1C21"/>
  <path d="m123.6 84c-0.5 0.5 0 1.5 0.6 1.1s0.3-1.6-0.6-1.1z" fill="#fff"/>
  <linearGradient id="SVGID_43_" x1="115.4" x2="120.6" y1="87.6" y2="87.6" gradientUnits="userSpaceOnUse">
    <stop stop-color="#DF851F" offset="0"/>
    <stop stop-color="#FAD256" offset="1"/>
  </linearGradient>
  <path d="m115.4 86.6c1.2-2.7 5-2.5 5.2 1.1-1.4 4.4-4.9 4.4-5.2-1.1z" fill="url(#SVGID_43_)"/>
  <path d="m115.7 86.9 4.5 0.7c-1.1 3.8-4.2 3.5-4.5-0.7z" fill="#47200D"/>
  <path d="m116.4 87.4 3.2 0.5c-0.9 2.5-3.1 2-3.2-0.5z" fill="#BF5C45"/>
  <path d="m116.4 87.4c0.5 2.2 2.5 2.2 3.2 0.5l-3.2-0.5z" fill="#F28E6C"/>
  <linearGradient id="SVGID_44_" x1="115.4" x2="120.5" y1="85.15" y2="85.15" gradientUnits="userSpaceOnUse">
    <stop stop-color="#FAD256" offset="0"/>
    <stop stop-color="#F6C344" offset="1"/>
  </linearGradient>
  <path d="m115.4 86.6 5.1 0.5c-0.4-2.6-3.6-3.7-5.1-0.5z" fill="url(#SVGID_44_)"/>
  <path d="m111.5 83.9c1.4-1.2 3.2-0.5 3.6 0.8l-0.6 0.3c-0.5-1-1.8-1.3-2.9-0.6l-0.1-0.5z"/>
  <ellipse class="cls-10" cx="111" cy="86.4" rx="1.5" ry="1"/>
  <ellipse class="cls-10" cx="125.7" cy="89.4" rx="1.4" ry="1"/>
  <path d="m125.9 94.9c1.8 2 2.7 5.6 2.5 8.5l0.2-1.7c0-2.3-1.2-5.6-2.7-6.8z" fill="#3572E2"/>
  <path d="m112.4 94.1c-2.3 1.3-3.5 5.3-2.3 9l1 2.9c-2.6-2.3-3-9.1 1.3-11.9z" fill="#3572E2"/>
  <path class="cls-5" d="m107.5 98c-0.6 2.5-0.1 5.6 2 8-1.8-1-2.9-4.5-2-8z"/>
  <path class="cls-30" d="m112.9 108.9c-0.4-0.4 0.1-1 0.3-1.2-0.5 0.3-0.8 0.9-0.3 1.2z"/>
  <path class="cls-30" d="m127.1 108.7c-0.4-0.3 0-1 0.3-1.1-0.5 0.1-0.8 0.9-0.3 1.1z"/>
  <linearGradient id="SVGID_45_" x1="100.4" x2="104.1" y1="80.2" y2="80.2" gradientUnits="userSpaceOnUse">
    <stop stop-color="#F6C564" offset="0"/>
    <stop stop-color="#F6C564" offset="1"/>
  </linearGradient>
  <path d="m102.2 78.5c0 1.2-0.7 1.9-1.8 2.1 1 0.3 1.7 0.8 1.8 1.8 0.3-1 0.9-1.7 1.9-1.9-1-0.1-1.7-0.8-1.9-2z" fill="url(#SVGID_45_)"/>
  <linearGradient id="SVGID_46_" x1="99" x2="101.4" y1="84.6" y2="84.6" gradientUnits="userSpaceOnUse">
    <stop stop-color="#F6C564" offset="0"/>
    <stop stop-color="#F6C564" offset="1"/>
  </linearGradient>
  <path d="m100.2 83.6c0 0.5-0.6 0.8-1.2 1 0.6 0.1 1.2 0.4 1.2 1 0.3-0.5 0.7-0.9 1.2-1-0.5 0-1-0.4-1.2-1z" fill="url(#SVGID_46_)"/>
  <linearGradient id="SVGID_47_" x1="101.1" x2="105.6" y1="91.6" y2="91.6" gradientUnits="userSpaceOnUse">
    <stop stop-color="#4180EE" offset="0"/>
    <stop stop-color="#5496FB" offset="1"/>
  </linearGradient>
  <path d="m102.4 89.2c2-0.7 5.2 4.5 0.8 4.9-2.1 0.3-2.8-4.2-0.8-4.9z" fill="url(#SVGID_47_)"/>
  <ellipse cx="163.1" cy="107.9" rx="6.5" ry="1.2" fill="#000" fill-opacity=".1"/>
  <linearGradient id="SVGID_48_" x1="162.7" x2="169.6" y1="106.8" y2="106.8" gradientUnits="userSpaceOnUse">
    <stop stop-color="#DF851F" offset="0"/>
    <stop stop-color="#FCC447" offset="1"/>
  </linearGradient>
  <path d="m162.7 105.6c1 2.3 2.8 3.3 5.5 3.1 2.4-0.3 1.4-2.5 0.4-2.7l-2.2-0.9-3.7 0.5z" fill="url(#SVGID_48_)" stroke="#AC631B" stroke-width=".15"/>
  <linearGradient id="SVGID_49_" x1="152.7" x2="160.7" y1="105.4" y2="105.4" gradientUnits="userSpaceOnUse">
    <stop stop-color="#DF851F" offset="0"/>
    <stop stop-color="#C67725" offset="1"/>
  </linearGradient>
  <path d="m153.6 103.5c-1.9 0.2-1.5 3.6 3 3.9 1.9 0 4-0.5 4-2l-3.1-1.9h-3.9z" fill="url(#SVGID_49_)" stroke="#AC631B" stroke-width=".15"/>
  <linearGradient id="SVGID_50_" x1="170.6" x2="176.6" y1="96.9" y2="96.9" gradientUnits="userSpaceOnUse">
    <stop stop-color="#4180EE" offset="0"/>
    <stop stop-color="#3572E2" offset="1"/>
  </linearGradient>
  <path d="m171.4 92.2 4.5 5.8c2 2.5-0.2 3.5-3.5 3l-1.8-4.9 0.8-3.9z" fill="url(#SVGID_50_)"/>
  <linearGradient id="SVGID_51_" x1="146.7" x2="154.6" y1="89.55" y2="89.55" gradientUnits="userSpaceOnUse">
    <stop stop-color="#4180EE" offset="0"/>
    <stop stop-color="#5496FB" offset="1"/>
  </linearGradient>
  <path d="m147.5 83.1c-2.3 0.5-1.1 6.5 5.9 12.5l1.2-4-2.7-5.6c-1-1.6-3-3.3-4.4-2.9z" fill="url(#SVGID_51_)"/>
  <linearGradient id="SVGID_52_" x1="152.1" x2="175.4" y1="83.5" y2="83.5" gradientUnits="userSpaceOnUse">
    <stop stop-color="#62A1FC" offset="0"/>
    <stop stop-color="#4180EE" offset="1"/>
  </linearGradient>
  <path d="m163.4 72.4c-7-0.8-11.3 4.5-11.3 10.2 0 3.3 1.4 7.1 4 8.5l-2.6 3.9c-1.4 3.7-0.6 7.6 2.1 8.9l10.3 2c3.5 0.3 6.7-1.4 6.7-5.2-0.2-2.8-1.2-6.6-1.7-8.3 2.1-1.3 4.3-4.4 4.5-8.5 0-4.4-2.8-9.5-7.7-10.5l-4.3-1z" fill="url(#SVGID_52_)"/>
  <linearGradient id="SVGID_53_" x1="163.4" x2="169.1" y1="71.45" y2="71.45" gradientUnits="userSpaceOnUse">
    <stop stop-color="#62A1FC" offset="0"/>
    <stop stop-color="#3572E2" offset="1"/>
  </linearGradient>
  <path d="m163.4 72.4c1.1-0.8 1.7-3.4 2.6-3.3 0.9 0.4 1.9 2.4-0.1 3.9 1.2-1 1.7-2.5 2.7-2.4 1 0.5 0.5 3-0.9 2.9l-4.3-1.1z" fill="url(#SVGID_53_)"/>
  <radialGradient id="SVGID_54_" cx="163.1" cy="97.7" r="7.169" gradientTransform="matrix(1 0 0 1.031 0 -3.108)" gradientUnits="userSpaceOnUse">
    <stop stop-color="#fff" offset=".422"/>
    <stop stop-color="#D9E5FB" offset="1"/>
  </radialGradient>
  <path d="m157.2 91.6c-2.6 2-4.1 9.8-0.6 12 2 1.8 6.8 3 10 1.1 3.6-1.8 4.5-8.7 1.5-12.2l-10.9-0.9z" fill="url(#SVGID_54_)"/>
  <radialGradient id="SVGID_55_" cx="162.9" cy="84.1" r="8.468" gradientTransform="matrix(1 0 0 1.031 0 -2.717)" gradientUnits="userSpaceOnUse">
    <stop stop-color="#fff" offset=".422"/>
    <stop stop-color="#D9E5FB" offset="1"/>
  </radialGradient>
  <path d="m154.4 84c-1.8-2.5 0.2-8.4 4.5-8.4 2.6 0.3 4.6 2.8 4.7 5.1 0.8-3.1 4.1-5.6 6.5-4 3.5 2 3.5 7.2 1.6 9 1.7 1.4-0.2 6-3.6 6.9-2.7 0.5-10.5-0.1-11-1-2.7-1.7-5-6-2.7-7.6z" fill="url(#SVGID_55_)"/>
  <path d="m158.5 80.6c-1.9 0-2.4 4 0.4 4 2.2-0.4 2.2-4-0.4-4z" fill="#1B1C21"/>
  <path d="m159.4 81.4c-0.3-0.7-1.3 0.1-0.5 1 0.6 0.3 1.2-0.7 0.5-1z" fill="#fff"/>
  <path d="m167.5 81.4c-1.9 0.1-2.3 4.3 0.6 4.2 2.1-0.5 1.5-4.5-0.6-4.2z" fill="#1B1C21"/>
  <path d="m168.4 82.4c-0.5-0.7-1.2 0.2-0.7 1 0.7 0.5 1.2-0.5 0.7-1z" fill="#fff"/>
  <linearGradient id="SVGID_56_" x1="160.7" x2="165.6" y1="85.7" y2="85.7" gradientUnits="userSpaceOnUse">
    <stop stop-color="#DF851F" offset="0"/>
    <stop stop-color="#FAD256" offset="1"/>
  </linearGradient>
  <path d="m160.7 84.6c1.2-2.5 4.9-2.1 4.8 1-1.4 4.5-4.6 4.3-4.8-1z" fill="url(#SVGID_56_)"/>
  <path d="m161.1 85 4.1 0.6c-0.8 3.8-4.1 3.3-4.1-0.6z" fill="#47200D"/>
  <path d="m161.6 85.5 3.1 0.4c-0.6 2.2-3 2-3.1-0.4z" fill="#BF5C45"/>
  <path d="m161.6 85.5c0.5 2.1 2.5 2.1 3.1 0.4l-3.1-0.4z" fill="#F28E6C"/>
  <linearGradient id="SVGID_57_" x1="160.7" x2="165.4" y1="84.1" y2="84.1" gradientUnits="userSpaceOnUse">
    <stop stop-color="#FAD256" offset="0"/>
    <stop stop-color="#F6C344" offset="1"/>
  </linearGradient>
  <path d="m160.7 84.6 4.7 0.4c-0.5-2.5-3.5-3.1-4.7-0.4z" fill="url(#SVGID_57_)"/>
  <path class="cls-5" d="m168.1 92.6c1.8 1.8 2.5 5.1 2 8.1l0.5-1.3c0-2.5-1-5.5-2.5-6.8z"/>
  <path class="cls-5" d="m156.9 91.4c-2 1.3-3.3 6.1-1.4 11.2-2.3-1.5-2-8.5 1.4-11.2z"/>
  <ellipse class="cls-10" cx="156.7" cy="85.4" rx="1.4" ry="1"/>
  <ellipse class="cls-10" cx="169.5" cy="87" rx="1.2" ry="1"/>
  <path class="cls-30" d="m167.4 108.6c-0.4-0.4-0.2-1.4 0.1-1.6-0.5 0.2-0.8 1.2-0.1 1.6z"/>
  <linearGradient id="SVGID_58_" x1="147.4" x2="149.7" y1="68.1" y2="68.1" gradientUnits="userSpaceOnUse">
    <stop stop-color="#F6D06E" offset="0"/>
    <stop stop-color="#F6C564" offset="1"/>
  </linearGradient>
  <path d="m147.4 67.9c-0.2 1.1 1.8 1.7 2.2 0.7 0-0.6-1.7-2.2-2.2-0.7z" fill="url(#SVGID_58_)"/>
  <linearGradient id="SVGID_59_" x1="161.6" x2="163.6" y1="66.6" y2="66.6" gradientUnits="userSpaceOnUse">
    <stop stop-color="#86B8F2" offset="0"/>
    <stop stop-color="#62A1FC" offset="1"/>
  </linearGradient>
  <path d="m161.6 66c-0.6 0.9 1.4 2.2 1.9 0.9-0.3-0.9-1.3-1.5-1.9-0.9z" fill="url(#SVGID_59_)"/>
  <path class="cls-21" d="m174.6 71.9c0 0.8-0.7 1.1-1.4 1.5 0.9 0.1 1.4 0.3 1.5 1.1 0.2-0.8 0.7-1.1 1.4-1.1-0.7-0.2-1.4-0.7-1.5-1.5z"/>
  <linearGradient id="SVGID_60_" x1="176.6" x2="178" y1="78" y2="78" gradientUnits="userSpaceOnUse">
    <stop stop-color="#8697F2" offset="0"/>
    <stop stop-color="#97A8F2" offset="1"/>
  </linearGradient>
  <path d="m176.6 78.6c0.3 0.8 2-0.7 1.3-1.4-0.8-0.5-1.8 0.9-1.3 1.4z" fill="url(#SVGID_60_)"/>
  <linearGradient id="SVGID_61_" x1="177.2" x2="178.6" y1="85.4" y2="85.4" gradientUnits="userSpaceOnUse">
    <stop stop-color="#62A1FC" offset="0"/>
    <stop stop-color="#62A1FC" offset="1"/>
  </linearGradient>
  <path d="m177.2 85.4c0 1.2 1.7 1 1.4-0.3-0.4-0.7-1.4-0.5-1.4 0.3z" fill="url(#SVGID_61_)"/>
  <ellipse class="cls-22" cx="176.4" cy="89.4" rx=".6" ry=".5"/>
  <ellipse class="cls-26" cx="150.6" cy="97" rx=".4" ry=".4"/>
  <circle class="cls-23" cx="153.5" cy="69" r=".4"/>
  <circle class="cls-24" cx="171.2" cy="70" r=".4"/>
  <circle class="cls-22" cx="158.6" cy="66.6" r=".3"/>
  <linearGradient id="SVGID_62_" x1="145.7" x2="147.1" y1="78.6" y2="78.6" gradientUnits="userSpaceOnUse">
    <stop stop-color="#86B8F2" offset="0"/>
    <stop stop-color="#62A1FC" offset="1"/>
  </linearGradient>
  <path d="m145.7 78.6c0 0.5 1.7 0.5 1.3-0.1s-1.3-0.3-1.3 0.1z" fill="url(#SVGID_62_)"/>
  <circle class="cls-26" cx="149.4" cy="78.4" r=".4"/>
  <ellipse cx="154" cy="73.5" rx=".8" ry=".6" fill="#F1B6A4"/>
</svg>