<svg xmlns="http://www.w3.org/2000/svg" width="66" height="43" fill="none" viewBox="0 0 66 43"><g clip-path="url(#a)"><path fill="#AFAFAF" d="M36.364 26.01c-2.814-1.239-2.814-4.593 0-5.832L59.611 9.942c2.64-1.162 5.82.43 5.82 2.916V33.33c0 2.486-3.18 4.078-5.82 2.916z"/><path fill="#AFAFAF" d="M37.672 4.949H9.914C4.439 4.949 0 8.64 0 13.197V34.64c0 4.555 4.439 8.248 9.914 8.248h27.758c5.476 0 9.914-3.693 9.914-8.248V13.197c0-4.556-4.438-8.248-9.914-8.248"/><path fill="#D9D9D9" d="M36.364 21.061c-2.814-1.239-2.814-4.593 0-5.832L59.611 4.994c2.64-1.163 5.82.43 5.82 2.916v20.47c0 2.487-3.18 4.08-5.82 2.917z"/><mask id="b" width="32" height="28" x="34" y="4" maskUnits="userSpaceOnUse" style="mask-type:alpha"><path fill="#fff" d="M36.364 21.061c-2.814-1.239-2.814-4.593 0-5.832L59.611 4.994c2.64-1.163 5.82.43 5.82 2.916v20.47c0 2.487-3.18 4.08-5.82 2.917z"/></mask><g mask="url(#b)"><path fill="#B7B7B7" d="M53.535 4.949H41.638v26.393h11.897z"/></g><path fill="#D9D9D9" d="M37.672 0H9.914C4.439 0 0 3.693 0 8.248v21.444c0 4.556 4.439 8.248 9.914 8.248h27.758c5.476 0 9.914-3.692 9.914-8.248V8.248C47.586 3.693 43.148 0 37.672 0"/></g><defs><clipPath id="a"><path fill="#fff" d="M0 0h65.431v42.889H0z"/></clipPath></defs></svg>