<svg xmlns="http://www.w3.org/2000/svg" width="100" height="100" viewBox="0 0 100 100"><g clip-path="url(#a)"><path d="M35.595 66.755a8.865 8.865 0 0 0-10.07-7.467c-4.843.714-8.19 5.225-7.471 10.07l.495 3.332c-1.93.45-3.23 2.296-2.934 4.29l1.483 10.005c.296 1.992 2.075 3.38 4.05 3.252l.328 2.197a8.86 8.86 0 0 0 10.069 7.469c4.842-.717 8.185-5.223 7.47-10.069zm45.857 5.935.494-3.333c.72-4.844-2.628-9.355-7.47-10.069a8.865 8.865 0 0 0-10.07 7.467l-3.42 23.079a8.865 8.865 0 0 0 7.47 10.069 8.86 8.86 0 0 0 10.068-7.469l.327-2.197c1.976.128 3.755-1.26 4.05-3.252l1.484-10.006c.296-1.993-1.005-3.84-2.933-4.289"/><path d="M85.293 14.752C76.548 5.424 64.117-.018 50 0 35.883-.018 23.452 5.424 14.707 14.752 5.947 24.068.893 37.16.901 52.172q0 2.522.19 5.115c1.025 13.926 3.5 24.994 4.54 29.663l7.876-1.754c-1.025-4.598-3.384-15.185-4.37-28.504a62 62 0 0 1-.167-4.52c.008-13.226 4.393-24.201 11.617-31.894C27.83 12.595 37.927 8.088 50 8.069c12.07.018 22.17 4.526 29.413 12.209 7.224 7.693 11.61 18.668 11.617 31.895q0 2.22-.168 4.52c-.984 13.318-3.345 23.905-4.369 28.503l7.876 1.754c1.04-4.67 3.515-15.737 4.54-29.663q.19-2.594.19-5.114c.008-15.012-5.045-28.105-13.806-37.421"/></g><defs><clipPath id="a"><path d="M0 0h100v100H0z"/></clipPath></defs></svg>