<svg xmlns="http://www.w3.org/2000/svg" viewBox="5 94.7 166.8 80">
<!-- SVG created with Arrow, by QuiverAI (https://quiver.ai) -->
  <style type="text/css">.cls-0 {fill:url(#SVGID_1_);}
.cls-1 {fill:#FFFFFF;}
.cls-2 {opacity:0.4;fill:#FFFFFF;enable-background:new    ;}
.cls-3 {fill:none;stroke:#FFFFFF;stroke-width:0.9412;stroke-linecap:round;stroke-miterlimit:10;}
.cls-4 {fill:url(#body_2_);}
.cls-5 {fill:url(#wing_1_);}
.cls-6 {fill:url(#tail_1_);}
.cls-7 {fill:#FFFFFF;stroke:#80B1FF;stroke-width:0.5604;stroke-miterlimit:10;}
.cls-8 {fill:url(#body_3_);}
.cls-9 {fill:url(#head_fill_1_);}
.cls-10 {fill:url(#wing_2_);}
.cls-11 {fill:#C7CCDA;}
.cls-12 {fill:url(#SVGID_2_);}
.cls-13 {fill:#FDB319;}
.cls-14 {fill:#DE750E;}
.cls-15 {fill:#2868FE;}
.cls-16 {fill:url(#SVGID_3_);}
.cls-17 {fill:#204ED9;}
.cls-18 {fill:url(#SVGID_4_);}
.cls-19 {fill:#FF6F4A;}
.cls-20 {fill:#AF3D1B;}
.cls-21 {fill:url(#SVGID_5_);}
.cls-22 {fill:url(#وقتك_ buttom bytearray3_1_);}
.cls-23 {fill:#286FFE;}</style>
  <linearGradient id="SVGID_1_" x1="165" x2="8.387" y1="176" y2="95.86" gradientTransform="matrix(1 0 0 -1 0 276)" gradientUnits="userSpaceOnUse">
    <stop stop-color="#579DFD" offset="0"/>
    <stop stop-color="#347CF8" offset="1"/>
  </linearGradient>
  <path class="cls-0" d="m158 174.9h-142.2c-4.8 0-8.8-4.2-8.8-9v-61.2c0-4.8 4-9 8.8-9h142.2c4.8 0 9 4.2 9 9v61.1c0 5-3.9 9.1-9 9.1z"/>
  <path class="cls-1" d="m23.5 107.3c-4.9 0-9.4 3.6-9.4 9.3v3.9c0 5.4 4.2 9 8.9 9h1.1c4.9 0.5 8.6-3.8 8.8-8.5v-2.7c0.1-6.9-4.3-11-9.4-11z"/>
  <path class="cls-1" d="m38 112.5v-1h4.5v1h-1.8v4.8h-1.1v-4.8h-1.6zm5.7 0c-0.4 0-0.6-0.2-0.6-0.6s0.2-0.6 0.6-0.6c0.3 0 0.6 0.3 0.6 0.6s-0.3 0.6-0.6 0.6zm-0.5 4.8v-4.3h1.1v4.3h-1.1zm2.2 0v-4.3h1l0.1 0.6c0.2-0.4 0.6-0.7 1.1-0.7 0.6 0 1 0.3 1.3 0.6 0.3-0.4 0.7-0.6 1.4-0.6 0.9 0 1.5 0.7 1.5 1.6v2.9h-1v-2.4c0-0.6-0.2-1.1-0.7-1.1s-0.8 0.5-0.9 1.1v2.4h-0.9v-2.4c0-0.6-0.2-1.1-0.8-1.1s-0.8 0.5-0.9 1.1v2.4h-1.2v-0.1zm9.2 0.1c-1.2 0-2-0.8-2-2.2 0-1.2 0.8-2.2 2-2.2s1.9 0.9 1.9 2.1v0.4h-2.8c0 0.7 0.4 1 1 1s0.9-0.2 1.2-0.6l0.7 0.6c-0.5 0.6-1.1 0.9-2 0.9zm-1-2.7h1.9c0-0.5-0.3-0.9-0.9-0.9s-0.9 0.3-1 0.9zm7.5 2.7c-0.8 0-1.2-0.5-1.2-1.2v-2.3h-0.6v-0.9h0.6v-1.1h1v1.1h1.1v0.9h-1.1v2.1c0 0.3 0.2 0.5 0.5 0.5 0.2 0 0.3 0 0.5-0.1l0.1 0.8c-0.2 0.1-0.5 0.2-0.9 0.2zm3.5 0c-1.2 0-2.1-0.8-2.1-2.2s0.9-2.2 2.1-2.2 2.1 0.8 2.1 2.2-0.9 2.2-2.1 2.2zm-1-2.2c0 0.9 0.4 1.3 1 1.3s1-0.4 1-1.3-0.4-1.4-1-1.4-1 0.6-1 1.4zm5.7 2.1v-6h1.1v6.1h-1.1v-0.1zm3.9 0.1c-1.2 0-2-0.8-2-2.2 0-1.2 0.8-2.2 2-2.2s2 0.9 2 2.1v0.4h-2.8c0 0.7 0.3 1 1 1s0.9-0.2 1.2-0.6l0.7 0.6c-0.5 0.6-1.1 0.9-2.1 0.9zm-0.8-2.7h1.9c0-0.5-0.3-0.9-0.9-0.9-0.7 0-1 0.3-1 0.9zm4.9 2.7c-0.9 0-1.4-0.5-1.4-1.3s0.6-1.3 1.5-1.4l1.1-0.2v-0.1c0-0.4-0.3-0.6-0.7-0.6s-0.8 0.2-1 0.6l-0.7-0.6c0.3-0.5 1-0.8 1.8-0.8 1.1 0 1.7 0.6 1.7 1.5v2.8h-0.9l-0.1-0.5c-0.3 0.3-0.7 0.6-1.3 0.6zm-0.4-1.3c0 0.3 0.2 0.5 0.5 0.5 0.5 0 0.9-0.2 1.1-0.6v-0.6l-0.9 0.1c-0.5 0-0.7 0.2-0.7 0.6zm3.6 1.2v-4.3h1l0.1 0.6c0.2-0.4 0.6-0.6 1.1-0.6h0.4l-0.1 1c-0.1 0-0.3-0.1-0.4-0.1-0.6 0-0.9 0.4-1 1.1v2.3h-1.1zm3.1 0v-4.3h1l0.1 0.6c0.2-0.4 0.7-0.6 1.2-0.6 0.9 0 1.5 0.6 1.5 1.5v2.8h-1v-2.4c0-0.5-0.2-0.9-0.8-0.9s-0.8 0.4-0.9 1v2.3h-1.1zm4.9-1.8-0.2-4.1h1.1l-0.2 4.1h-0.7zm0.3 1.9c-0.3 0-0.6-0.3-0.6-0.6s0.3-0.5 0.6-0.5 0.6 0.2 0.6 0.5-0.3 0.6-0.6 0.6z"/>
  <path class="cls-1" d="m38.2 127.9v-3.8h0.5v3.4h1.8v0.4h-2.3zm3.9 0c-0.8 0-1.3-0.6-1.3-1.5 0-0.8 0.5-1.4 1.3-1.4s1.3 0.6 1.3 1.4v0.2h-2.1c-0.1 0.4 0.2 1 0.8 1 0.5 0 0.7-0.2 0.9-0.5l0.4 0.3c-0.3 0.3-0.7 0.5-1.3 0.5zm-0.7-1.8h1.5c0-0.4-0.2-0.7-0.8-0.7-0.3 0-0.7 0.2-0.7 0.7zm3.5 1.8c-0.5 0-0.7-0.3-0.7-0.7v-1.8h-0.5v-0.4h0.5v-0.8h0.5v0.8h0.7v0.4h-0.8v1.7c0 0.2 0.1 0.4 0.3 0.4s0.3 0 0.4-0.1l0.1 0.4c0 0.1-0.3 0.1-0.5 0.1zm1.4-2.8h-0.3l0.3-0.8h-0.2v-0.5h0.6v0.4l-0.4 0.9zm1.9 2.8c-0.5 0-0.9-0.2-1.1-0.5l0.3-0.3c0.2 0.3 0.5 0.4 0.8 0.4 0.4 0 0.6-0.2 0.6-0.4 0-0.7-1.6-0.4-1.6-1.4 0-0.5 0.3-0.8 0.9-0.8 0.5 0 0.8 0.2 1 0.5l-0.3 0.3c-0.1-0.2-0.4-0.3-0.7-0.3s-0.5 0.1-0.5 0.3c0 0.6 1.7 0.3 1.7 1.4 0 0.4-0.5 0.8-1.1 0.8zm2.9 0v-2.9h0.4v0.5c0.1-0.3 0.4-0.5 0.8-0.5h0.3v0.4h-0.3c-0.5 0-0.7 0.3-0.8 0.8v1.7h-0.4zm3.2 0c-0.8 0-1.4-0.6-1.4-1.5 0-0.8 0.5-1.4 1.3-1.4s1.3 0.6 1.3 1.4v0.2h-2.1c0 0.4 0.3 0.9 1 0.9 0.4 0 0.7-0.2 0.8-0.5l0.3 0.3c-0.3 0.4-0.7 0.6-1.2 0.6zm-0.8-1.8h1.6c0-0.4-0.3-0.7-0.8-0.7s-0.8 0.2-0.8 0.7zm3.4 1.8c-0.5 0-0.8-0.3-0.8-0.8s0.3-0.8 1-0.9l0.7-0.1v-0.1c0-0.3-0.2-0.5-0.6-0.5s-0.7 0.1-0.7 0.5l-0.4-0.3c0.2-0.4 0.6-0.6 1.1-0.6 0.6 0 1.1 0.3 1.1 1v1.8h-0.4l-0.1-0.4c0 0.2-0.3 0.4-0.9 0.4zm-0.3-0.8c0 0.2 0.2 0.4 0.4 0.4 0.4 0 0.7-0.2 0.9-0.5v-0.5l-0.7 0.1c-0.4-0.1-0.6 0.1-0.6 0.5zm3.6 0.8c-0.8 0-1.3-0.6-1.3-1.5 0-0.8 0.5-1.4 1.3-1.4 0.6 0 1 0.3 1.2 0.7l-0.4 0.2c-0.1-0.3-0.3-0.5-0.7-0.5-0.5 0-0.8 0.4-0.8 1s0.3 1 0.8 1c0.4 0 0.6-0.2 0.7-0.5l0.4 0.2c-0.2 0.5-0.6 0.8-1.2 0.8zm1.9 0v-4h0.4v1.6c0.2-0.3 0.5-0.5 0.9-0.5 0.7 0 1 0.4 1 1.1v1.8h-0.5v-1.8c0-0.4-0.1-0.7-0.5-0.7s-0.7 0.3-0.9 0.8v1.7h-0.4zm4.7 1.1 0.6-1.3-1.1-2.6h0.5l0.9 2 0.8-2h0.6l-1.7 3.9h-0.6zm3.8-1.1c-0.8 0-1.3-0.6-1.3-1.5 0-0.8 0.5-1.4 1.3-1.4s1.3 0.6 1.3 1.4c0 0.9-0.5 1.5-1.3 1.5zm-0.9-1.5c0 0.6 0.4 1.1 0.8 1.1s0.8-0.4 0.8-1.1c0-0.6-0.3-1-0.8-1-0.4 0-0.8 0.4-0.8 1zm3.6 1.5c-0.6 0-0.9-0.4-0.9-1.1v-1.8h0.5v1.7c0 0.4 0.1 0.7 0.5 0.7s0.7-0.3 0.9-0.8v-1.6h0.5v2.8h-0.5l0.1-0.4c-0.2 0.3-0.5 0.5-1.1 0.5zm2.2 0v-2.9h0.5v0.5c0.1-0.3 0.4-0.5 0.8-0.5h0.3l-0.1 0.4h-0.3c-0.4 0-0.7 0.3-0.7 0.8v1.7h-0.5zm4.3 0c-0.7 0-1.3-0.6-1.3-1.5 0-0.8 0.5-1.4 1.2-1.4 0.4 0 0.6 0.1 0.8 0.4v-1.5h0.5v4h-0.4v-0.4c-0.1 0.2-0.4 0.4-0.8 0.4zm-0.8-1.5c0 0.6 0.3 1 0.8 1s0.8-0.4 0.8-0.9v-0.2c0-0.6-0.2-0.9-0.8-0.9-0.4 0-0.8 0.4-0.8 1zm3.6 1.5c-0.5 0-0.9-0.3-0.9-0.8s0.4-0.8 1-0.9l0.8-0.1v-0.1c0-0.3-0.2-0.5-0.6-0.5s-0.6 0.1-0.7 0.5l-0.4-0.3c0.2-0.4 0.5-0.6 1.1-0.6s1.1 0.3 1.1 1v1.8h-0.4l-0.1-0.4c-0.1 0.2-0.4 0.4-0.9 0.4zm-0.3-0.8c0 0.2 0.1 0.4 0.4 0.4 0.4 0 0.7-0.2 0.9-0.5v-0.5l-0.7 0.1c-0.5-0.1-0.6 0.1-0.6 0.5zm2.6-2.6c-0.2 0-0.3-0.1-0.3-0.3s0.1-0.3 0.3-0.3 0.3 0.1 0.3 0.3-0.1 0.3-0.3 0.3zm-0.2 3.4v-2.9h0.5v2.8l-0.5 0.1zm1.2 0v-4h0.5v4h-0.5zm1.3 1.1 0.6-1.3-1.1-2.6h0.5l0.8 2 0.8-2h0.6l-1.7 3.9h-0.6 0.1zm5-0.1c-0.5 0-0.9-0.2-1.1-0.5l0.3-0.3c0.1 0.3 0.4 0.4 0.8 0.4 0.5 0 0.8-0.4 0.8-0.9v-0.3c-0.2 0.3-0.5 0.4-0.8 0.4-0.7 0-1.2-0.6-1.2-1.4s0.5-1.4 1.2-1.4c0.4 0 0.7 0.1 0.8 0.4l0.1-0.3h0.4v2.6c0 0.7-0.5 1.3-1.3 1.3zm-0.7-2.6c0 0.6 0.3 1 0.8 1s0.7-0.4 0.8-0.9v-0.1c0-0.4-0.3-0.9-0.8-0.9-0.6 0-0.8 0.3-0.8 0.9zm3.9 1.6c-0.8 0-1.3-0.6-1.3-1.5 0-0.8 0.6-1.4 1.3-1.4s1.3 0.6 1.3 1.4c0 0.9-0.5 1.5-1.3 1.5zm-0.8-1.5c0 0.6 0.3 1.1 0.8 1.1s0.8-0.4 0.8-1.1c0-0.6-0.3-1-0.8-1-0.4 0-0.8 0.4-0.8 1zm3.4 1.5c-0.5 0-0.8-0.3-0.8-0.8s0.4-0.8 1-0.9l0.7-0.1v-0.1c0-0.3-0.1-0.5-0.6-0.5s-0.7 0.1-0.8 0.5l-0.3-0.3c0.2-0.4 0.5-0.6 1.1-0.6s1.1 0.3 1.1 1v1.8h-0.4v-0.4c-0.2 0.2-0.5 0.4-1 0.4zm-0.3-0.8c0 0.2 0.2 0.4 0.5 0.4s0.6-0.2 0.8-0.5v-0.5l-0.7 0.1c-0.4-0.1-0.6 0.1-0.6 0.5zm2.5 0.8v-4h0.5v4h-0.5zm1.5 0c-0.2 0-0.3-0.1-0.3-0.3 0-0.3 0.1-0.4 0.3-0.4s0.4 0.1 0.4 0.4c-0.1 0.2-0.2 0.3-0.4 0.3z"/>
  <path class="cls-1" d="m17.6 160.8v-3.4l-0.9 0.1v-0.6l0.9-0.4h0.6v4.2h-0.6v0.1zm1.3 0 1.7-2.1c0.3-0.3 0.5-0.6 0.5-1s-0.3-0.7-0.6-0.7-0.6 0.2-0.8 0.6l-0.6-0.3c0.3-0.7 0.7-0.9 1.4-0.9s1.4 0.5 1.4 1.2-0.3 1-0.7 1.4l-1 1.1h1.8v0.6l-3.1 0.1zm4.9 0.7 1.4-5.2h0.6l-1.5 5.2h-0.5zm3.8-0.7 1.7-2.1c0.2-0.3 0.5-0.6 0.5-1s-0.3-0.7-0.6-0.7-0.6 0.2-0.8 0.6l-0.7-0.2c0.3-0.7 0.8-1.1 1.5-1.1s1.3 0.5 1.3 1.3-0.3 0.9-0.7 1.3l-1 1.1h1.8v0.6l-3 0.2zm5.1 0.1c-1.1 0-1.5-0.9-1.5-2.3s0.5-2.2 1.5-2.2c0.9-0.1 1.6 0.8 1.6 2.2s-0.5 2.3-1.6 2.3zm-0.8-2.3c0 0.9 0.2 1.6 0.8 1.6s0.9-0.7 0.9-1.6-0.2-1.7-0.9-1.7c-0.6 0.1-0.8 0.7-0.8 1.7zm4.2 2.2 1.3-2.2-1.2-2.1h0.9l0.8 1.4 0.8-1.4h0.9l-1.2 2.1 1.3 2.2h-0.9l-0.9-1.6-0.9 1.6h-0.9zm4.2 0v-4.3h1.4c0.9 0 1.6 0.4 1.6 1.4s-0.7 1.4-1.6 1.4h-0.5v1.5h-0.9zm0.7-2.3h0.6c0.6 0 0.9-0.3 0.9-0.7s-0.3-0.7-0.9-0.7h-0.6v1.4z"/>
  <path class="cls-2" d="m94 150h-74.9c-1.5 0-2.8-1.3-2.8-3.2s1.3-3.9 3.4-3.9h73.9c1.9 0 3.3 1.4 3.3 2.9 0.1 2.1-0.8 4.2-2.9 4.2z"/>
  <path class="cls-1" d="m64.5 150h-45.5c-1.4 0-2.7-1.4-2.7-3.8 0-2 1.6-3.3 3.1-3.3h44.6c1.4 0 3 1.2 3.1 3.2s-1.3 3.9-2.6 3.9z"/>
  <path class="cls-3" d="m153.5 108.8-0.4 0.9-0.5 1-0.4 0.9"/>
  <path class="cls-3" d="m160 115.2-1.8 0.8-1.4 0.6"/>
  <radialGradient id="body_2_" cx="-277.2" cy="86.8" r="18.23" gradientTransform="matrix(-.98 0 0 -1.03 316.2 235.4)" gradientUnits="userSpaceOnUse">
    <stop stop-color="#E7E8F4" offset="0"/>
    <stop stop-color="#ADB1CD" offset="1"/>
  </radialGradient>
  <path class="cls-4" d="m111.3 174.9h40.2c2.2-2 4.6-4.9 4.6-9.2 0-5.2-5.4-9.2-8.5-14.2l-28.9-0.4c-1.7 5-6 7.9-7.8 12.5-1.7 4.7-1.2 8.4 0.4 11.3z"/>
  <linearGradient id="wing_1_" x1="153.2" x2="155.9" y1="95.93" y2="115.1" gradientTransform="matrix(1 0 0 -1 0 276)" gradientUnits="userSpaceOnUse">
    <stop stop-color="#104CDD" offset="0"/>
    <stop stop-color="#3984FD" offset="1"/>
  </linearGradient>
  <path class="cls-5" d="m154.6 156.9c-0.8-2.7 0.4-5 0.4-5l-8.1 1.1c0 6.5-0.7 21.9-0.7 21.9h10.6c3.2 0-1-14.4-2.2-18z"/>
  <linearGradient id="tail_1_" x1="108.1" x2="116.8" y1="162.8" y2="162.8" gradientUnits="userSpaceOnUse">
    <stop stop-color="#76ACFC" offset="0"/>
    <stop stop-color="#175AEA" offset="1"/>
  </linearGradient>
  <path class="cls-6" d="m116.8 151.5s-1.9 4-4.7 7.5c-1.8 2.4-3.4 6.7-4 9.9-0.2 1.7 1 5.2 2.6 6h5.7l0.4-23.4z"/>
  <path class="cls-7" d="m130.7 113.9c-6.8 0-21.9 6-22.1 24.8-0.1 8.4 4.5 13.3 5.9 14.4 2 1.5 2.3 3 1.5 4.8l26 1.5c-0.5-1.5 1.4-4.1 2-4.5 4.3-2.9 9-7 8.7-16.3-0.3-10.4-7-24.7-22-24.7z"/>
  <linearGradient id="body_3_" x1="131.2" x2="158.9" y1="114.2" y2="144.9" gradientUnits="userSpaceOnUse">
    <stop stop-color="#3E86FB" offset="0"/>
    <stop stop-color="#3478FA" offset=".4985"/>
    <stop stop-color="#1A5DE7" offset="1"/>
  </linearGradient>
  <path class="cls-8" d="m130.5 114.9c-5 0-21.5 6.7-21.5 25.1 0 5.9 3.6 10.4 7.3 12.9 1.8 1.1 2.5 3.3 1.6 5.2 0.1 0 25.6 1.4 25.6 1.4s-0.9-3.4 0.4-5.5c4.9-2.3 12.8-6.9 15-13 0.7-7.1-3-26.1-21.3-27l-7.1 0.9z"/>
  <radialGradient id="head_fill_1_" cx="135.3" cy="131.3" r="21.32" fx="126" fy="125.7" gradientUnits="userSpaceOnUse">
    <stop stop-color="#fff" offset=".3414"/>
    <stop stop-color="#FCFDFE" offset=".6793"/>
    <stop stop-color="#F3F6FA" offset=".8653"/>
    <stop stop-color="#E6ECF5" offset="1"/>
  </radialGradient>
  <path class="cls-9" d="m121.1 124.9c-5.1 0-10.6 5.5-10.6 14.1 0 7.7 4.1 12 6.9 14 2.6 2.3 3.1 2.9 3.5 3.1l20.6 0.1c0.1-0.5 0.4-1.7 2.6-2.7 2.1-1.4 8-5 8-14.5s-6.2-13.4-11-13.4c-7.7-0.1-10.8 5.9-12.3 10.1-0.4-2.3-1.6-10.2-7.7-10.8z"/>
  <radialGradient id="wing_2_" cx="141.8" cy="110.7" r="6.43" gradientUnits="userSpaceOnUse">
    <stop stop-color="#3B8AFE" offset="0"/>
    <stop stop-color="#1D60EE" offset=".4516"/>
    <stop stop-color="#124ADA" offset="1"/>
  </radialGradient>
  <path class="cls-10" d="m136.6 114.7c0.7-3.6 9.3-9.2 10.9-4.7 0.6 1.9-2.5 5.7-10.9 4.7z"/>
  <path class="cls-11" d="m129.8 135.7c-0.1-0.2 0.1 0 0 0v0.3-0.3z"/>
  <linearGradient id="SVGID_2_" x1="130.2" x2="138.9" y1="109.6" y2="109.6" gradientUnits="userSpaceOnUse">
    <stop stop-color="#5BA4FE" offset="0"/>
    <stop stop-color="#468AFE" offset=".0632"/>
    <stop stop-color="#2969FE" offset=".1688"/>
    <stop stop-color="#1A5CEB" offset=".4831"/>
    <stop stop-color="#124AE1" offset=".9103"/>
  </linearGradient>
  <path class="cls-12" d="m129.9 114.5c-1.4-8.5 4.3-13.1 7.8-12.5 3.7 1.1 1.7 12.5-4.5 14-1.7 0.4-3.1 0.4-3.3-1.5z"/>
  <path class="cls-13" d="m123.6 141.9c0-0.8 3-3.3 5.1-3.3 2.2 0.1 5.5 2.9 5.4 3.8s-1.5 7.3-5.5 7.6c-3.9 0-5-7.9-5-8.1z"/>
  <path class="cls-14" d="m123.6 141.9c-0.4 1.5 1.8 8.3 5.1 8.5 3.2 0.1 5.9-5.5 5.5-8-0.2 0.2-7.1 0.1-10.6-0.5z"/>
  <path d="m124.1 142.4c0 0.5 1.6 5.1 3.9 5.2s4.9-3.2 4.7-4.7l-8.6-0.5z"/>
  <path class="cls-15" d="m128 153.9c-1.8 2.1-1 10.3 0.5 13.2l-5.5-1.1 2.1-13.4c0.6-0.1 2.4 0.4 2.9 1.3z"/>
  <linearGradient id="SVGID_3_" x1="113.7" x2="124" y1="173.9" y2="156.7" gradientUnits="userSpaceOnUse">
    <stop stop-color="#124AD9" offset="0"/>
    <stop stop-color="#2365F9" offset=".4624"/>
    <stop stop-color="#317CFD" offset=".974"/>
  </linearGradient>
  <path class="cls-16" d="m118.1 156.5c3-2.9 6-4.8 7.4-3.9 2.2 1.1 0.4 2.8 0.1 3.3 0.3 5.1 1.1 10.8 2.6 10.8-1 3.3-4.2 6.8-6.2 8.2h-10.6c-3.4-3.4-2.7-8.9 0-11.8 2.7-1.6 4.8-4.7 6.7-6.6z"/>
  <path class="cls-17" d="m121.5 157.6c1.5-1.6 4-3 4.2-1.2l0.7-1c-0.2-1.8-1.4-2.3-5 0.6l0.1 1.6z"/>
  <radialGradient id="SVGID_4_" cx="138.8" cy="163.5" r="16.59" gradientUnits="userSpaceOnUse">
    <stop stop-color="#367CFE" offset=".2899"/>
    <stop stop-color="#2564EF" offset=".7904"/>
    <stop stop-color="#1855DC" offset="1"/>
  </radialGradient>
  <path class="cls-18" d="m127 156.2c-0.8 0.3-1.8 5.4 1.2 10.8 1.8 2.9 4.9 6.6 6.3 7.6h16.9c4.1-4.4 6.5-11.1 3.2-19.6l-4.6-3.4c-1 0.8-6 5.9-7.3 7.8-1.5 0-4.5-1.4-7.2-3.8-3.1-2.7-6.3-4.1-8.4-2.7-1.5 1.1-0.1 3.1-0.1 3.3z"/>
  <path class="cls-17" d="m127.5 153.2-0.5 1c2.1-0.2 4.5 2.3 5.1 3.5l0.3-0.7c-0.5-1.6-2.9-3.5-4.9-3.8z"/>
  <path class="cls-15" d="m144.6 161.4 1.6 4.1-1.2-5.1 3.1-3.5-3.4 2.6-2.2-0.1 2.1 2z"/>
  <path class="cls-17" d="m142.5 160.7 2.2 0.8 2.3-3 3.9-3c-1.7 0.4-3.7 0.4-4 0.4-1.2 1.2-2.8 3-3.9 4l-0.5 0.8z"/>
  <path class="cls-19" d="m127 147.5c0-1.4 0.7-2.6 2.2-2.8 1.3-0.1 2.4 0.4 2.4 1.4-0.9 1-2.6 2.8-4.6 1.4z"/>
  <path class="cls-20" d="m127 146.5v0.5l0.5 0.1c0-0.5 0-0.6-0.5-0.6z"/>
  <linearGradient id="SVGID_5_" x1="124.3" x2="132.4" y1="141.8" y2="141.8" gradientUnits="userSpaceOnUse">
    <stop stop-color="#FAB532" offset="0"/>
    <stop stop-color="#FBC432" offset="1"/>
  </linearGradient>
  <path class="cls-21" d="m124.3 141.5s1.9-1.9 4.1-1.6c2.1 0.1 3.7 2.1 4.1 2.6 0.5 0.4-6-1.5-8.2-1z"/>
  <radialGradient id="SVGID_6_" cx="115.1" cy="65.25" r="3.929" gradientTransform="matrix(1 0 0 -.9 .1298 203.9)" gradientUnits="userSpaceOnUse">
    <stop stop-color="#FFD7E1" offset="0"/>
    <stop stop-color="#EFF3FD" stop-opacity="0" offset="1"/>
  </radialGradient>
  <path d="m118.9 144c0 2.1-1.6 3.9-3.6 3.9s-3.9-1.8-3.9-3.9 0.7-3.8 3.4-3.6c2 0.2 4.1 1.5 4.1 3.6z" fill="url(#SVGID_6_)"/>
  <path class="cls-22" d="m138.9 133.4c2.2 0 4.2 2 4.1 4.8-0.1 2.5-1.5 4.7-4.3 4.7s-4.3-2.2-3.6-5.8c0.4-2 2-3.7 3.8-3.7z"/>
  <ellipse class="cls-1" cx="138.4" cy="136.1" rx="1.2" ry="1.2"/>
  <radialGradient id="_x24 scrim_1_" cx="120" cy="137.3" r="3.987" gradientUnits="userSpaceOnUse">
    <stop stop-color="#212940" offset="0"/>
    <stop stop-color="#0B1019" offset="1"/>
  </radialGradient>
  <path d="m120.3 132.7c1.9-0.1 3.7 1.9 3.6 4.7 0 2.2-1.5 4.5-3.4 4.5s-4.1-1.9-3.4-5.9c0.3-1.5 1.7-3.3 3.2-3.3z" fill="url(#_x24 scrim_1_)"/>
  <circle class="cls-1" cx="120.5" cy="135.4" r="1.1"/>
  <path class="cls-23" d="m22.9 125.5c-2.6-0.1-4.6-2.4-4.4-5 0.3-4 4.4-6.1 3.9-9.1 2.2 0.6 3.1 2.8 2.6 5.7 0.8-0.1 1.4-0.6 1.8-1.5 1.1 1 1.7 3.9 1.7 4.9-0.1 2.1-1.5 4.6-4.7 5 2.1-1.5 2.7-2.8-0.4-6.5-1.9 2.2-3.8 3.9-0.4 6.1l-0.1 0.4z"/>
</svg>